<?xml version="1.0" encoding="utf-8"?>
<!-- Generator: Adobe Illustrator 16.0.0, SVG Export Plug-In . SVG Version: 6.00 Build 0)  -->
<!DOCTYPE svg PUBLIC "-//W3C//DTD SVG 1.1//EN" "http://www.w3.org/Graphics/SVG/1.1/DTD/svg11.dtd">
<svg version="1.1" xmlns="http://www.w3.org/2000/svg" xmlns:xlink="http://www.w3.org/1999/xlink" x="0px" y="0px" width="80px"
	 height="80px" viewBox="0 0 80 80" enable-background="new 0 0 80 80" xml:space="preserve">
<g id="Layer_1">
	<g opacity="0.4">
		<g>
			<path fill="#10141C" d="M40,0C18.009,0,0,18.011,0,40c0,21.994,18.009,40,40,40c21.992,0,40-18.006,40-40
				C80,18.011,61.992,0,40,0L40,0z M60,44.004H44.007v15.998h-8.01V44.004H19.998v-8.007h15.999V20h8.01v15.997H60V44.004z
				 M60,44.004"/>
		</g>
	</g>
</g>
<g id="Layer_2" display="none">
	<g display="inline">
		<g>
			<path fill="#10141C" d="M40,0C18.009,0,0,18.011,0,40c0,21.994,18.009,40,40,40c21.992,0,40-18.006,40-40
				C80,18.011,61.992,0,40,0L40,0z M60,44.004H44.007v15.998h-8.01V44.004H19.998v-8.007h15.999V20h8.01v15.997H60V44.004z
				 M60,44.004"/>
		</g>
	</g>
</g>
</svg>
