<?xml version="1.0" encoding="utf-8"?>
<!-- Generator: Adobe Illustrator 16.0.0, SVG Export Plug-In . SVG Version: 6.00 Build 0)  -->
<!DOCTYPE svg PUBLIC "-//W3C//DTD SVG 1.1//EN" "http://www.w3.org/Graphics/SVG/1.1/DTD/svg11.dtd">
<svg version="1.1" id="Layer_1" xmlns="http://www.w3.org/2000/svg" xmlns:xlink="http://www.w3.org/1999/xlink" x="0px" y="0px"
	 width="50px" height="50px" viewBox="0 0 50 50" enable-background="new 0 0 50 50" xml:space="preserve">
<g id="Layer_2">
	<g>
		<g>
			<circle fill="#FFFFFF" cx="25" cy="25" r="25"/>
		</g>
		<g>
			<path fill="#132038" d="M24.048,18.279H17.58c-0.939,1.035-1.506,2.332-1.629,3.734h5.598c0.473,0,0.857,0.387,0.857,0.863
				c0,0.475-0.385,0.865-0.857,0.865h-5.527c0.109,0.6,0.297,1.18,0.563,1.729h4.965c0.473,0,0.857,0.387,0.857,0.861
				c0,0.478-0.385,0.864-0.857,0.864h-3.74c0.012,0.013,0.023,0.021,0.033,0.035c1.236,1.236,2.871,1.92,4.621,1.92
				c1.199,0,2.375-0.321,3.345-0.922v-8.196C25.809,19.047,25.031,18.279,24.048,18.279L24.048,18.279z"/>
			<path fill="#132038" d="M37.488,33.752l-5.777-5.773c0.912-1.592,1.393-3.397,1.393-5.28c0-2.846-1.104-5.525-3.117-7.535
				c-2.016-2.014-4.691-3.125-7.537-3.125c-2.852,0-5.527,1.111-7.539,3.125c-2.014,2.01-3.121,4.689-3.121,7.535
				c0,2.847,1.107,5.522,3.121,7.536c2.012,2.015,4.688,3.123,7.539,3.123c2.125,0,4.16-0.621,5.893-1.774l5.656,5.66
				c0.48,0.479,1.113,0.723,1.744,0.723c0.633,0,1.264-0.243,1.744-0.723C38.451,36.277,38.451,34.719,37.488,33.752L37.488,33.752z
				 M28.299,28.547c-1.563,1.564-3.643,2.426-5.85,2.426c-2.213,0-4.289-0.861-5.852-2.426c-1.564-1.563-2.426-3.637-2.426-5.85
				c0-2.211,0.861-4.285,2.422-5.85c1.564-1.563,3.643-2.426,5.855-2.426c2.207,0,4.289,0.859,5.85,2.426
				C31.525,20.07,31.525,25.325,28.299,28.547L28.299,28.547z"/>
		</g>
	</g>
</g>
</svg>
