<?xml version="1.0" encoding="utf-8"?>
<!-- Generator: Adobe Illustrator 16.0.0, SVG Export Plug-In . SVG Version: 6.00 Build 0)  -->
<!DOCTYPE svg PUBLIC "-//W3C//DTD SVG 1.1//EN" "http://www.w3.org/Graphics/SVG/1.1/DTD/svg11.dtd">
<svg version="1.1" id="Layer_1" xmlns="http://www.w3.org/2000/svg" xmlns:xlink="http://www.w3.org/1999/xlink" x="0px" y="0px"
	 width="50px" height="50px" viewBox="0 0 50 50" enable-background="new 0 0 50 50" xml:space="preserve">
<g id="Layer_5">
	<g>
		<g>
			<path fill="#10152A" d="M25,48.5C12.042,48.5,1.5,37.958,1.5,25S12.042,1.5,25,1.5S48.5,12.042,48.5,25S37.958,48.5,25,48.5z"/>
			<g>
				<path fill="#FFFFFF" d="M25,3c12.131,0,22,9.869,22,22s-9.869,22-22,22S3,37.131,3,25S12.869,3,25,3 M25,0
					C11.191,0,0,11.195,0,25c0,13.809,11.191,25,25,25c13.807,0,25-11.191,25-25C50,11.195,38.807,0,25,0L25,0z"/>
			</g>
		</g>
		<g>
			<path fill="#FFFFFF" d="M31.43,23.705c1.26,0,2.453,0.287,3.521,0.793c0.77-1.295,1.33-2.557,1.514-3.672
				c0.381-2.338,0.041-4.225-1.01-5.604c-1.055-1.389-2.738-2.191-5.145-2.443c-0.189-0.021-0.396-0.033-0.601-0.033
				c-2.076,0-4.436,1.006-5.803,2.906c-1.377-1.9-3.736-2.906-5.807-2.906c-0.211,0-0.414,0.012-0.607,0.033
				c-2.398,0.258-4.082,1.055-5.143,2.443c-1.051,1.379-1.391,3.266-1.01,5.604c0.934,5.682,11.453,14.799,11.896,15.188
				c0.203,0.176,0.457,0.266,0.707,0.266c0.125,0,0.24-0.026,0.357-0.061c-0.736-1.238-1.158-2.686-1.158-4.223
				C23.144,27.43,26.863,23.705,31.43,23.705z M34.965,21.705c0,0-0.408-6.1-5.832-6.908C29.133,14.797,35.641,13.842,34.965,21.705
				z"/>
			<polyline fill="#FFFFFF" points="32.799,33.186 35.885,33.186 35.885,30.496 32.799,30.496 30.107,30.496 26.98,30.496 
				26.98,33.186 30.107,33.186 			"/>
			<path fill="#FFFFFF" d="M31.43,24.514c-4.068,0-7.374,3.296-7.374,7.369c0,4.076,3.305,7.373,7.374,7.373
				c4.074,0,7.379-3.297,7.379-7.373C38.809,27.811,35.504,24.514,31.43,24.514z M31.43,38.113c-3.441,0-6.229-2.787-6.229-6.23
				c0-3.439,2.787-6.229,6.229-6.229c3.447,0,6.234,2.789,6.234,6.229C37.664,35.326,34.877,38.113,31.43,38.113z"/>
		</g>
	</g>
</g>
</svg>
