<?xml version="1.0" encoding="utf-8"?>
<!-- Generator: Adobe Illustrator 16.0.0, SVG Export Plug-In . SVG Version: 6.00 Build 0)  -->
<!DOCTYPE svg PUBLIC "-//W3C//DTD SVG 1.1//EN" "http://www.w3.org/Graphics/SVG/1.1/DTD/svg11.dtd">
<svg version="1.1" id="Layer_1" xmlns="http://www.w3.org/2000/svg" xmlns:xlink="http://www.w3.org/1999/xlink" x="0px" y="0px"
	 width="50px" height="50px" viewBox="0 0 50 50" enable-background="new 0 0 50 50" xml:space="preserve">
<g id="Layer_3">
	<g>
		<g>
			<path fill="#10152A" d="M25,48.5C12.042,48.5,1.5,37.958,1.5,25S12.042,1.5,25,1.5S48.5,12.042,48.5,25S37.958,48.5,25,48.5z"/>
			<g>
				<path fill="#FFFFFF" d="M25,3c12.131,0,22,9.869,22,22s-9.869,22-22,22S3,37.131,3,25S12.869,3,25,3 M25,0
					C11.192,0,0,11.193,0,25c0,13.809,11.192,25,25,25c13.807,0,25-11.191,25-25C50,11.193,38.807,0,25,0L25,0z"/>
			</g>
		</g>
		<g>
			<g>
				<path fill="#FFFFFF" d="M31.428,23.705c1.262,0,2.455,0.287,3.523,0.791c0.77-1.293,1.33-2.555,1.514-3.67
					c0.381-2.338,0.041-4.225-1.01-5.604c-1.055-1.389-2.738-2.193-5.145-2.445c-0.189-0.021-0.396-0.033-0.601-0.033
					c-2.076,0-4.436,1.008-5.803,2.908c-1.377-1.9-3.735-2.908-5.807-2.908c-0.211,0-0.414,0.012-0.607,0.033
					c-2.397,0.258-4.081,1.057-5.143,2.445c-1.051,1.379-1.391,3.266-1.009,5.604c0.933,5.68,11.453,14.799,11.896,15.186
					c0.204,0.178,0.458,0.266,0.708,0.266c0.124,0,0.239-0.024,0.357-0.061c-0.736-1.238-1.159-2.684-1.159-4.223
					C23.144,27.428,26.863,23.705,31.428,23.705L31.428,23.705z M34.965,21.703c0,0-0.408-6.098-5.832-6.908
					C29.133,14.795,35.639,13.84,34.965,21.703L34.965,21.703z M31.428,24.512c-4.066,0-7.372,3.296-7.372,7.371
					c0,4.076,3.305,7.373,7.372,7.373c4.076,0,7.379-3.297,7.379-7.373C38.807,27.809,35.504,24.512,31.428,24.512L31.428,24.512z
					 M31.428,38.111c-3.439,0-6.227-2.787-6.227-6.229s2.787-6.229,6.227-6.229c3.449,0,6.236,2.789,6.236,6.229
					C37.664,35.323,34.877,38.111,31.428,38.111L31.428,38.111z M35.885,30.494v2.691h-3.086v3.153h-2.691v-3.153H26.98v-2.691
					h3.127v-3.066h2.69v3.066H35.885z"/>
			</g>
		</g>
	</g>
</g>
</svg>
