<?xml version="1.0" encoding="utf-8"?>
<!-- Generator: Adobe Illustrator 16.0.0, SVG Export Plug-In . SVG Version: 6.00 Build 0)  -->
<!DOCTYPE svg PUBLIC "-//W3C//DTD SVG 1.1//EN" "http://www.w3.org/Graphics/SVG/1.1/DTD/svg11.dtd">
<svg version="1.1" id="Layer_1" xmlns="http://www.w3.org/2000/svg" xmlns:xlink="http://www.w3.org/1999/xlink" x="0px" y="0px"
	 width="50px" height="50px" viewBox="0 0 50 50" enable-background="new 0 0 50 50" xml:space="preserve">
<g id="Layer_8">
	<g>
		<g>
			<circle fill="#FFFFFF" cx="25" cy="25" r="25"/>
		</g>
		<g>
			<g>
				<path fill="#132037" d="M40.514,26.85l-2.117-2.117c-0.289-0.289-0.604-0.426-0.977-0.426c-0.316,0-0.604,0.125-0.854,0.371
					l-1.691,1.664l-6.754,6.754c-0.125,0.15-0.188,0.277-0.205,0.346l-1.129,4c-0.023,0.084-0.041,0.164-0.041,0.248
					c0,0.345,0.33,0.701,0.756,0.701c0.098,0,0.166-0.012,0.221-0.026l3.975-1.154c0.136-0.039,0.248-0.084,0.33-0.166l6.798-6.78
					l1.661-1.664c0.222-0.222,0.345-0.494,0.388-0.824C40.873,27.4,40.748,27.086,40.514,26.85L40.514,26.85z M31.105,35.832
					l-2.502,0.703l0.729-2.504l6.08-6.08l1.801,1.775L31.105,35.832z M38.285,28.654l-1.801-1.777l0.963-0.963l1.773,1.775
					L38.285,28.654z"/>
			</g>
			<path fill="#132037" d="M30.117,23.521h-11.83c-0.426,0-0.756,0.33-0.756,0.758c0,0.428,0.33,0.77,0.756,0.77h11.83
				c0.424,0,0.756-0.342,0.756-0.77C30.873,23.851,30.541,23.521,30.117,23.521L30.117,23.521z"/>
			<path fill="#132037" d="M30.873,27.689c0-0.426-0.332-0.756-0.756-0.756h-11.83c-0.426,0-0.756,0.33-0.756,0.756
				s0.33,0.77,0.756,0.77h11.83C30.541,28.459,30.873,28.115,30.873,27.689L30.873,27.689z"/>
			<path fill="#132037" d="M23.775,30.316h-5.488c-0.426,0-0.756,0.33-0.756,0.758c0,0.426,0.33,0.756,0.756,0.756h5.488
				c0.426,0,0.77-0.33,0.77-0.756C24.545,30.646,24.201,30.316,23.775,30.316L23.775,30.316z"/>
			<path fill="#132037" d="M23.775,33.729h-5.488c-0.426,0-0.756,0.33-0.756,0.756c0,0.429,0.33,0.757,0.756,0.757h5.488
				c0.426,0,0.77-0.328,0.77-0.757C24.545,34.059,24.201,33.729,23.775,33.729L23.775,33.729z"/>
			<path fill="#132037" d="M16.402,36.74V11.941c0-0.098,0.041-0.137,0.139-0.137h5.639v8.168c0,0.936,0.715,1.693,1.65,1.693H32
				v4.621h1.525V20.14H33.5l-9.807-9.824l-0.029-0.025h-7.123c-0.469,0-0.867,0.164-1.184,0.482
				c-0.316,0.314-0.482,0.715-0.482,1.168V36.74c0,0.936,0.73,1.65,1.666,1.65h8.98v-1.513h-8.98
				C16.443,36.879,16.402,36.838,16.402,36.74L16.402,36.74z M23.693,12.477l7.661,7.662H23.83c-0.098,0-0.137-0.055-0.137-0.166
				V12.477z"/>
		</g>
	</g>
	<g>
		<g>
			<g>
				<path fill="#F4162A" d="M25,48.5C12.042,48.5,1.5,37.958,1.5,25S12.042,1.5,25,1.5S48.5,12.042,48.5,25S37.958,48.5,25,48.5z"/>
				<path fill="#FFFFFF" d="M25,3c12.131,0,22,9.869,22,22s-9.869,22-22,22C12.87,47,3,37.131,3,25S12.869,3,25,3 M25,0
					C11.191,0,0,11.193,0,25c0,13.807,11.191,25,25,25c13.807,0,25-11.193,25-25C50,11.193,38.807,0,25,0L25,0z"/>
			</g>
		</g>
		<g>
			<g>
				<path fill="#FFFFFF" d="M30.781,19.176H17.728c-1.377,0-2.486,1.113-2.486,2.486l1.348,14.301c0,1.375,1.115,2.484,2.484,2.484
					h10.568c1.369,0,2.486-1.109,2.486-2.484l1.139-14.301C33.268,20.289,32.152,19.176,30.781,19.176L30.781,19.176z
					 M20.941,34.096c0,0.687-0.559,1.244-1.244,1.244c-0.689,0-1.242-0.559-1.242-1.244V22.904c0-0.686,0.553-1.242,1.242-1.242
					c0.686,0,1.244,0.557,1.244,1.242V34.096z M25.291,34.096c0,0.687-0.559,1.244-1.242,1.244c-0.689,0-1.244-0.559-1.244-1.244
					V22.904c0-0.686,0.555-1.242,1.244-1.242c0.684,0,1.242,0.557,1.242,1.242V34.096z M29.643,34.096
					c0,0.687-0.559,1.244-1.244,1.244c-0.688,0-1.239-0.559-1.239-1.244V22.904c0-0.686,0.551-1.242,1.239-1.242
					c0.687,0,1.244,0.557,1.244,1.242V34.096z M17.064,17.936l15.047-3.873c0.832-0.211,1.332-1.061,1.117-1.891
					s-1.062-1.328-1.89-1.119l-4.627,1.189c-0.428-0.637-1.219-0.969-2.004-0.77l-1.805,0.469c-0.785,0.201-1.318,0.875-1.387,1.639
					l-5.227,1.346c-0.834,0.213-1.332,1.061-1.117,1.891C15.388,17.65,16.234,18.145,17.064,17.936L17.064,17.936z"/>
			</g>
		</g>
	</g>
</g>
</svg>
