<?xml version="1.0" encoding="utf-8"?>
<!-- Generator: Adobe Illustrator 16.0.0, SVG Export Plug-In . SVG Version: 6.00 Build 0)  -->
<!DOCTYPE svg PUBLIC "-//W3C//DTD SVG 1.1//EN" "http://www.w3.org/Graphics/SVG/1.1/DTD/svg11.dtd">
<svg version="1.1" id="Layer_1" xmlns="http://www.w3.org/2000/svg" xmlns:xlink="http://www.w3.org/1999/xlink" x="0px" y="0px"
	 width="50px" height="50px" viewBox="0 0 50 50" enable-background="new 0 0 50 50" xml:space="preserve">
<g id="Layer_9">
	<g>
		<g>
			<g>
				<g>
					<circle fill="#FFFFFF" cx="25" cy="25" r="25"/>
				</g>
			</g>
		</g>
		<g>
			<g>
				<path fill="#F4162A" d="M30.781,19.176H17.728c-1.377,0-2.486,1.113-2.486,2.486l1.348,14.301c0,1.375,1.115,2.484,2.484,2.484
					h10.568c1.369,0,2.486-1.109,2.486-2.484l1.139-14.301C33.268,20.289,32.152,19.176,30.781,19.176L30.781,19.176z
					 M20.941,34.096c0,0.687-0.559,1.244-1.244,1.244c-0.689,0-1.242-0.559-1.242-1.244V22.904c0-0.686,0.553-1.242,1.242-1.242
					c0.686,0,1.244,0.557,1.244,1.242V34.096z M25.291,34.096c0,0.687-0.559,1.244-1.242,1.244c-0.689,0-1.244-0.559-1.244-1.244
					V22.904c0-0.686,0.555-1.242,1.244-1.242c0.684,0,1.242,0.557,1.242,1.242V34.096z M29.643,34.096
					c0,0.687-0.559,1.244-1.244,1.244c-0.688,0-1.239-0.559-1.239-1.244V22.904c0-0.686,0.551-1.242,1.239-1.242
					c0.687,0,1.244,0.557,1.244,1.242V34.096z M17.064,17.936l15.047-3.873c0.832-0.211,1.332-1.061,1.117-1.891
					s-1.062-1.328-1.89-1.119l-4.627,1.189c-0.428-0.637-1.219-0.969-2.004-0.77l-1.805,0.469c-0.785,0.201-1.318,0.875-1.387,1.639
					l-5.227,1.346c-0.834,0.213-1.332,1.061-1.117,1.891C15.388,17.65,16.234,18.145,17.064,17.936L17.064,17.936z"/>
			</g>
		</g>
	</g>
</g>
</svg>
