<?xml version="1.0" encoding="utf-8"?>
<!-- Generator: Adobe Illustrator 16.0.0, SVG Export Plug-In . SVG Version: 6.00 Build 0)  -->
<!DOCTYPE svg PUBLIC "-//W3C//DTD SVG 1.1//EN" "http://www.w3.org/Graphics/SVG/1.1/DTD/svg11.dtd">
<svg version="1.1" id="Layer_1" xmlns="http://www.w3.org/2000/svg" xmlns:xlink="http://www.w3.org/1999/xlink" x="0px" y="0px"
	 width="30px" height="30px" viewBox="0 0 30 30" enable-background="new 0 0 30 30" xml:space="preserve">
<g id="НАСТРОЙКИ">
	<g>
		<g>
			<path fill="#132037" d="M24.311,16.336c0-0.385,0.131-0.764,0.131-1.271c0-0.507,0-0.887-0.131-1.271l2.664-2.155
				c0.254-0.254,0.254-0.508,0.131-0.764l-2.541-4.441c-0.123-0.127-0.377-0.256-0.762-0.127l-3.174,1.271
				c-0.631-0.508-1.393-0.891-2.156-1.271l-0.508-3.302c0.131-0.378-0.254-0.632-0.508-0.632h-5.076
				c-0.253,0-0.632,0.254-0.632,0.508l-0.508,3.426c-0.762,0.256-1.4,0.764-2.156,1.271L6.036,6.307
				c-0.378-0.129-0.632,0-0.887,0.256l-2.54,4.443c-0.124,0.125,0,0.508,0.254,0.762l2.665,2.026c0,0.385-0.124,0.764-0.124,1.271
				c0,0.507,0,0.887,0.124,1.271L2.863,18.49c-0.254,0.254-0.254,0.508-0.124,0.764l2.535,4.441c0.13,0.125,0.384,0.256,0.762,0.125
				l3.172-1.271c0.633,0.508,1.396,0.893,2.158,1.271l0.508,3.303c0,0.252,0.254,0.506,0.631,0.506h5.081
				c0.256,0,0.633-0.254,0.633-0.506l0.51-3.303c0.763-0.379,1.523-0.764,2.156-1.271l3.172,1.271c0.254,0.131,0.639,0,0.762-0.256
				l2.541-4.441c0.123-0.254,0.123-0.633-0.131-0.764L24.311,16.336z M14.922,19.505c-2.417,0-4.442-2.028-4.442-4.44
				c0-2.412,2.025-4.444,4.442-4.444c2.412,0,4.438,2.032,4.438,4.444C19.359,17.477,17.334,19.505,14.922,19.505L14.922,19.505z"/>
		</g>
	</g>
</g>
</svg>
