<?xml version="1.0" encoding="utf-8"?>
<!-- Generator: Adobe Illustrator 16.0.0, SVG Export Plug-In . SVG Version: 6.00 Build 0)  -->
<!DOCTYPE svg PUBLIC "-//W3C//DTD SVG 1.1//EN" "http://www.w3.org/Graphics/SVG/1.1/DTD/svg11.dtd">
<svg version="1.1" id="Layer_1" xmlns="http://www.w3.org/2000/svg" xmlns:xlink="http://www.w3.org/1999/xlink" x="0px" y="0px"
	 width="30px" height="30px" viewBox="0 0 30 30" enable-background="new 0 0 30 30" xml:space="preserve">
<g id="КАТАЛОГ_2">
	<g opacity="0.4">
		<rect x="3.018" y="6.089" fill="#0C111A" width="5.516" height="17.772"/>
		<rect x="9.76" y="7.931" fill="#0C111A" width="3.678" height="15.933"/>
		<rect x="15.174" y="11.915" fill="#0C111A" width="3.473" height="11.949"/>
		<path fill="#0C111A" d="M4.246,3.076H7.31c0.675,0,1.224,0.458,1.224,1.021V5.12H3.018V4.097C3.018,3.534,3.568,3.076,4.246,3.076
			L4.246,3.076z"/>
		<path fill="#0C111A" d="M10.984,5.121h1.227c0.676,0,1.227,0.457,1.227,1.02v1.021H9.76V6.14
			C9.76,5.578,10.309,5.121,10.984,5.121L10.984,5.121z"/>
		<path fill="#0C111A" d="M16.396,8.591h1.228c0.676,0,1.228,0.457,1.228,1.024v1.021h-3.678v-1.02
			C15.174,9.048,15.721,8.591,16.396,8.591L16.396,8.591z"/>
		<path fill="#0C111A" d="M26.626,23.588l-3.61,0.686L20.055,8.613l3.614-0.682L26.626,23.588z M20.738,5.626l1.203-0.229
			c0.664-0.125,1.289,0.221,1.396,0.775l0.188,1.006L19.913,7.86c0,0-0.086-0.447-0.19-1.006C19.618,6.302,20.07,5.751,20.738,5.626
			L20.738,5.626z M26.777,24.393c0,0,0.084,0.449,0.189,1c0.104,0.558-0.352,1.109-1.016,1.236l-1.203,0.227
			c-0.666,0.125-1.289-0.221-1.395-0.776l-0.191-1.004L26.777,24.393z"/>
		<path fill="#0C111A" d="M18.852,24.885v1.021c0,0.566-0.552,1.02-1.228,1.02h-1.228c-0.678,0-1.224-0.453-1.224-1.02v-1.021
			H18.852z"/>
		<path fill="#0C111A" d="M13.438,24.885v1.021c0,0.566-0.551,1.02-1.227,1.02h-1.227c-0.676,0-1.225-0.453-1.225-1.02v-1.021
			H13.438z"/>
		<path fill="#0C111A" d="M8.533,24.885v1.021c0,0.566-0.549,1.02-1.224,1.02H4.246c-0.678,0-1.229-0.453-1.229-1.02v-1.021H8.533z"
			/>
	</g>
</g>
</svg>
