<?xml version="1.0" encoding="utf-8"?>
<!-- Generator: Adobe Illustrator 16.0.0, SVG Export Plug-In . SVG Version: 6.00 Build 0)  -->
<!DOCTYPE svg PUBLIC "-//W3C//DTD SVG 1.1//EN" "http://www.w3.org/Graphics/SVG/1.1/DTD/svg11.dtd">
<svg version="1.1" id="Layer_1" xmlns="http://www.w3.org/2000/svg" xmlns:xlink="http://www.w3.org/1999/xlink" x="0px" y="0px"
	 width="30px" height="30px" viewBox="0 0 30 30" enable-background="new 0 0 30 30" xml:space="preserve">
<g id="ТАБЛИЧНЫЙ">
	<g>
		<g>
			<g>
				<g>
					<path fill="#132037" d="M6.088,2.956c-1.903,0-3.449,1.546-3.449,3.448c0,1.901,1.546,3.446,3.449,3.446
						c1.898,0,3.447-1.544,3.447-3.446C9.535,4.502,7.986,2.956,6.088,2.956L6.088,2.956z M6.088,8.188
						c-0.984,0-1.785-0.802-1.785-1.784c0-0.984,0.801-1.785,1.785-1.785c0.982,0,1.783,0.801,1.783,1.785
						C7.871,7.387,7.07,8.188,6.088,8.188L6.088,8.188z"/>
					<path fill="#132037" d="M6.088,11.553c-1.903,0-3.449,1.547-3.449,3.447c0,1.902,1.546,3.447,3.449,3.447
						c1.898,0,3.447-1.545,3.447-3.447C9.535,13.1,7.986,11.553,6.088,11.553L6.088,11.553z M6.088,16.786
						c-0.984,0-1.785-0.802-1.785-1.785c0-0.984,0.801-1.785,1.785-1.785c0.982,0,1.783,0.801,1.783,1.785
						C7.871,15.984,7.07,16.786,6.088,16.786L6.088,16.786z"/>
					<path fill="#132037" d="M6.088,20.148c-1.903,0-3.449,1.547-3.449,3.449c0,1.9,1.546,3.447,3.449,3.447
						c1.898,0,3.447-1.547,3.447-3.447C9.535,21.695,7.986,20.148,6.088,20.148L6.088,20.148z M6.088,25.381
						c-0.984,0-1.785-0.801-1.785-1.783c0-0.983,0.801-1.787,1.785-1.787c0.982,0,1.783,0.804,1.783,1.787S7.07,25.381,6.088,25.381
						L6.088,25.381z"/>
				</g>
			</g>
			<g>
				<g>
					<path fill="#132037" d="M15.127,2.956c-1.902,0-3.449,1.546-3.449,3.448c0,1.901,1.547,3.446,3.449,3.446
						c1.898,0,3.445-1.544,3.445-3.446C18.572,4.502,17.025,2.956,15.127,2.956L15.127,2.956z M15.127,8.188
						c-0.985,0-1.785-0.802-1.785-1.784c0-0.984,0.8-1.785,1.785-1.785c0.98,0,1.782,0.801,1.782,1.785
						C16.909,7.387,16.107,8.188,15.127,8.188L15.127,8.188z"/>
					<path fill="#132037" d="M15.127,11.553c-1.902,0-3.449,1.547-3.449,3.447c0,1.902,1.547,3.447,3.449,3.447
						c1.898,0,3.445-1.545,3.445-3.447C18.572,13.1,17.025,11.553,15.127,11.553L15.127,11.553z M15.127,16.786
						c-0.985,0-1.785-0.802-1.785-1.785c0-0.984,0.8-1.785,1.785-1.785c0.98,0,1.782,0.801,1.782,1.785
						C16.909,15.984,16.107,16.786,15.127,16.786L15.127,16.786z"/>
					<path fill="#132037" d="M15.127,20.148c-1.902,0-3.449,1.547-3.449,3.449c0,1.9,1.547,3.447,3.449,3.447
						c1.898,0,3.445-1.547,3.445-3.447C18.572,21.695,17.025,20.148,15.127,20.148L15.127,20.148z M15.127,25.381
						c-0.985,0-1.785-0.801-1.785-1.783c0-0.983,0.8-1.787,1.785-1.787c0.98,0,1.782,0.804,1.782,1.787S16.107,25.381,15.127,25.381
						L15.127,25.381z"/>
				</g>
			</g>
			<g>
				<g>
					<path fill="#132037" d="M23.915,2.956c-1.901,0-3.449,1.546-3.449,3.448c0,1.901,1.548,3.446,3.449,3.446
						c1.899,0,3.446-1.544,3.446-3.446C27.361,4.502,25.814,2.956,23.915,2.956L23.915,2.956z M23.915,8.188
						c-0.983,0-1.785-0.802-1.785-1.784c0-0.984,0.802-1.785,1.785-1.785s1.782,0.801,1.782,1.785
						C25.697,7.387,24.898,8.188,23.915,8.188L23.915,8.188z"/>
					<path fill="#132037" d="M23.915,11.553c-1.901,0-3.449,1.547-3.449,3.447c0,1.902,1.548,3.447,3.449,3.447
						c1.899,0,3.446-1.545,3.446-3.447C27.361,13.1,25.814,11.553,23.915,11.553L23.915,11.553z M23.915,16.786
						c-0.983,0-1.785-0.802-1.785-1.785c0-0.984,0.802-1.785,1.785-1.785s1.782,0.801,1.782,1.785
						C25.697,15.984,24.898,16.786,23.915,16.786L23.915,16.786z"/>
					<path fill="#132037" d="M23.915,20.148c-1.901,0-3.449,1.547-3.449,3.449c0,1.9,1.548,3.447,3.449,3.447
						c1.899,0,3.446-1.547,3.446-3.447C27.361,21.695,25.814,20.148,23.915,20.148L23.915,20.148z M23.915,25.381
						c-0.983,0-1.785-0.801-1.785-1.783c0-0.983,0.802-1.787,1.785-1.787s1.782,0.804,1.782,1.787S24.898,25.381,23.915,25.381
						L23.915,25.381z"/>
				</g>
			</g>
		</g>
	</g>
</g>
</svg>
