<?xml version="1.0" encoding="utf-8"?>
<!-- Generator: Adobe Illustrator 16.0.0, SVG Export Plug-In . SVG Version: 6.00 Build 0)  -->
<!DOCTYPE svg PUBLIC "-//W3C//DTD SVG 1.1//EN" "http://www.w3.org/Graphics/SVG/1.1/DTD/svg11.dtd">
<svg version="1.1" id="Layer_1" xmlns="http://www.w3.org/2000/svg" xmlns:xlink="http://www.w3.org/1999/xlink" x="0px" y="0px"
	 width="30px" height="30px" viewBox="0 0 30 30" enable-background="new 0 0 30 30" xml:space="preserve">
<g id="СПИСОЧНЫЙ">
	<g opacity="0.4">
		<g>
			<g>
				<path fill="#132037" d="M6.086,2.957c-1.9,0-3.447,1.547-3.447,3.447c0,1.902,1.547,3.449,3.447,3.449s3.449-1.546,3.449-3.449
					C9.535,4.504,7.986,2.957,6.086,2.957L6.086,2.957z M6.086,8.189c-0.982,0-1.785-0.801-1.785-1.785
					c0-0.983,0.803-1.783,1.785-1.783c0.984,0,1.785,0.8,1.785,1.783C7.871,7.389,7.07,8.189,6.086,8.189L6.086,8.189z"/>
				<path fill="#132037" d="M12.326,7.726H26.04c0.729,0,1.321-0.591,1.321-1.321c0-0.729-0.592-1.32-1.321-1.32H12.326
					c-0.73,0-1.32,0.592-1.32,1.32C11.006,7.135,11.596,7.726,12.326,7.726L12.326,7.726z"/>
				<path fill="#132037" d="M6.086,11.554c-1.9,0-3.447,1.548-3.447,3.448c0,1.9,1.547,3.446,3.447,3.446s3.449-1.546,3.449-3.446
					C9.535,13.102,7.986,11.554,6.086,11.554L6.086,11.554z M6.086,16.786c-0.982,0-1.785-0.8-1.785-1.783
					c0-0.984,0.803-1.785,1.785-1.785c0.984,0,1.785,0.801,1.785,1.785C7.871,15.986,7.07,16.786,6.086,16.786L6.086,16.786z"/>
				<path fill="#132037" d="M26.04,13.682H12.326c-0.73,0-1.32,0.59-1.32,1.32c0,0.73,0.59,1.32,1.32,1.32H26.04
					c0.729,0,1.321-0.59,1.321-1.32C27.361,14.272,26.771,13.682,26.04,13.682L26.04,13.682z"/>
				<path fill="#132037" d="M6.086,20.15c-1.9,0-3.447,1.547-3.447,3.447c0,1.899,1.547,3.446,3.447,3.446s3.449-1.547,3.449-3.446
					C9.535,21.697,7.986,20.15,6.086,20.15L6.086,20.15z M6.086,25.382c-0.982,0-1.785-0.801-1.785-1.784
					c0-0.984,0.803-1.785,1.785-1.785c0.984,0,1.785,0.801,1.785,1.785C7.871,24.581,7.07,25.382,6.086,25.382L6.086,25.382z"/>
				<path fill="#132037" d="M26.04,22.277H12.326c-0.73,0-1.32,0.592-1.32,1.32c0,0.728,0.59,1.319,1.32,1.319H26.04
					c0.729,0,1.321-0.592,1.321-1.319C27.361,22.869,26.771,22.277,26.04,22.277L26.04,22.277z"/>
			</g>
		</g>
	</g>
</g>
</svg>
