<?xml version="1.0" encoding="utf-8"?>
<!-- Generator: Adobe Illustrator 16.0.0, SVG Export Plug-In . SVG Version: 6.00 Build 0)  -->
<!DOCTYPE svg PUBLIC "-//W3C//DTD SVG 1.1//EN" "http://www.w3.org/Graphics/SVG/1.1/DTD/svg11.dtd">
<svg version="1.1" id="Layer_1" xmlns="http://www.w3.org/2000/svg" xmlns:xlink="http://www.w3.org/1999/xlink" x="0px" y="0px"
	 width="32px" height="32px" viewBox="0 0 32 32" enable-background="new 0 0 32 32" xml:space="preserve">
<g id="Layer_8">
	<path fill="#FFFFFF" d="M16,0C7.163,0,0,7.164,0,16c0,8.837,7.163,16,16,16c8.836,0,16-7.162,16-16C32,7.164,24.836,0,16,0z
		 M24.077,16.938l3.063,3.52c0.392,0.451,0.071,1.152-0.524,1.152h-3.457c-0.546,0-1.072-0.207-1.474-0.578l-1.022-0.951
		c-1.155-1.012-1.646-1.359-2.108-1.359c-0.462,0-0.576,0.348-0.576,1.242s-0.174,1.646-2.831,1.646
		c-2.656,0-4.736-1.992-7.075-5.084c-2.339-3.089-3.379-6.41-3.379-6.41C4.564,9.7,4.875,9.279,5.311,9.279h2.767
		c0.526,0,1.005,0.305,1.226,0.781c0.227,0.49,0.616,1.247,1.282,2.366c0.945,1.588,1.854,2.304,2.367,2.609
		c0.192,0.113,0.435-0.027,0.435-0.25v-3.811c0-0.498-0.181-0.979-0.508-1.355L12.49,9.17c-0.102-0.115-0.019-0.297,0.135-0.297
		h4.372c0.67,0,1.213,0.545,1.213,1.213v4.432c0,0.285,0.37,0.397,0.526,0.158l3.147-4.742c0.248-0.373,0.667-0.598,1.115-0.598
		h3.694c0.504,0,0.811,0.556,0.543,0.982l-3.271,5.195C23.688,15.961,23.73,16.54,24.077,16.938z"/>
</g>
</svg>
