<?xml version="1.0" encoding="utf-8"?>
<!-- Generator: Adobe Illustrator 16.0.0, SVG Export Plug-In . SVG Version: 6.00 Build 0)  -->
<!DOCTYPE svg PUBLIC "-//W3C//DTD SVG 1.1//EN" "http://www.w3.org/Graphics/SVG/1.1/DTD/svg11.dtd">
<svg version="1.1" id="Layer_1" xmlns="http://www.w3.org/2000/svg" xmlns:xlink="http://www.w3.org/1999/xlink" x="0px" y="0px"
	 width="32px" height="32px" viewBox="0 0 32 32" enable-background="new 0 0 32 32" xml:space="preserve">
<g id="Layer_5">
	<g>
		<g>
			<path fill="#536078" d="M16,0C7.162,0,0,7.164,0,16.001S7.162,32,16,32c8.836,0,15.999-7.162,15.999-15.999S24.836,0,16,0L16,0z
				 M25.674,11.734c0.008,0.188,0.014,0.379,0.014,0.568c0,6.837-5.203,13.905-13.905,13.905c-2.66,0-5.25-0.76-7.491-2.197
				c-0.048-0.027-0.066-0.086-0.048-0.139c0.02-0.051,0.072-0.084,0.125-0.078c0.378,0.045,0.76,0.066,1.144,0.066
				c2.069,0,4.028-0.639,5.684-1.854c-1.986-0.166-3.693-1.512-4.307-3.43c-0.013-0.039-0.003-0.082,0.024-0.113
				c0.027-0.032,0.07-0.047,0.109-0.039c0.553,0.104,1.111,0.111,1.652,0.022c-2.049-0.637-3.49-2.555-3.49-4.741v-0.063
				c0.002-0.041,0.024-0.08,0.061-0.101s0.081-0.021,0.116,0c0.533,0.296,1.125,0.485,1.732,0.56
				c-1.178-0.938-1.868-2.361-1.868-3.883c0-0.878,0.231-1.74,0.671-2.495c0.021-0.033,0.055-0.056,0.093-0.06
				c0.04-0.004,0.076,0.014,0.103,0.042c2.408,2.958,5.954,4.777,9.745,5.013c-0.064-0.318-0.096-0.647-0.096-0.979
				c0-2.736,2.227-4.963,4.964-4.963c1.346,0,2.646,0.553,3.579,1.52c1.05-0.214,2.051-0.602,2.975-1.148
				c0.044-0.026,0.097-0.021,0.134,0.009c0.039,0.03,0.055,0.081,0.039,0.13c-0.313,0.979-0.925,1.833-1.744,2.45
				c0.771-0.134,1.523-0.361,2.236-0.678c0.049-0.022,0.104-0.008,0.139,0.033c0.033,0.038,0.037,0.098,0.008,0.142
				C27.419,10.208,26.613,11.048,25.674,11.734L25.674,11.734z"/>
		</g>
	</g>
</g>
</svg>
