<?xml version="1.0" encoding="utf-8"?>
<!-- Generator: Adobe Illustrator 16.0.0, SVG Export Plug-In . SVG Version: 6.00 Build 0)  -->
<!DOCTYPE svg PUBLIC "-//W3C//DTD SVG 1.1//EN" "http://www.w3.org/Graphics/SVG/1.1/DTD/svg11.dtd">
<svg version="1.1" id="Layer_1" xmlns="http://www.w3.org/2000/svg" xmlns:xlink="http://www.w3.org/1999/xlink" x="0px" y="0px"
	 width="32px" height="32px" viewBox="0 0 32 32" enable-background="new 0 0 32 32" xml:space="preserve">
<g id="Layer_1_1_">
	<g>
		<g>
			<path fill="#596377" d="M15.998,0C7.177,0,0,7.179,0,16c0,8.823,7.178,16,15.999,16C24.82,32,32,24.822,32,16
				C31.999,7.179,24.82,0,15.998,0L15.998,0z M19.979,16.563h-2.604v9.281h-3.857v-9.281h-1.835v-3.278h1.835v-2.12
				c0-1.518,0.721-3.894,3.893-3.894l2.856,0.012v3.183h-2.074c-0.34,0-0.817,0.17-0.817,0.894v1.929h2.938L19.979,16.563z"/>
		</g>
	</g>
</g>
</svg>
