<?xml version="1.0" encoding="utf-8"?>
<!-- Generator: Adobe Illustrator 16.0.0, SVG Export Plug-In . SVG Version: 6.00 Build 0)  -->
<!DOCTYPE svg PUBLIC "-//W3C//DTD SVG 1.1//EN" "http://www.w3.org/Graphics/SVG/1.1/DTD/svg11.dtd">
<svg version="1.1" id="Layer_1" xmlns="http://www.w3.org/2000/svg" xmlns:xlink="http://www.w3.org/1999/xlink" x="0px" y="0px"
	 width="32px" height="32px" viewBox="0 0 32 32" enable-background="new 0 0 32 32" xml:space="preserve">
<g id="Layer_4">
	<g>
		<g>
			<path fill="#FFFFFF" d="M15.994,0C7.167,0,0,7.167,0,15.994C0,24.834,7.167,32,15.994,32c8.838,0,16.005-7.166,16.005-16.006
				C31.999,7.159,24.832,0,15.994,0L15.994,0z M11.531,26.768c-3.534,0-6.522-1.444-6.522-3.75c0-2.334,2.727-4.59,6.258-4.59
				l1.115-0.01c-0.49-0.469-0.871-1.057-0.871-1.768c0-0.42,0.139-0.831,0.32-1.189l-0.582,0.018c-2.911,0-4.862-2.07-4.862-4.629
				c0-2.509,2.694-4.676,5.543-4.676h6.388l-1.436,1.023H14.86c1.338,0.518,2.064,2.08,2.064,3.69c0,1.351-0.752,2.5-1.809,3.33
				c-1.023,0.802-1.219,1.146-1.219,1.827c0,0.584,1.102,1.573,1.676,1.983c1.69,1.19,2.228,2.295,2.228,4.141
				C17.803,24.473,15.574,26.768,11.531,26.768L11.531,26.768z M24.003,14.033v3.994H22v-3.994h-4.003v-2.031H22V7.997h2.003v4.005
				h3.994v2.031H24.003z"/>
			<path fill="#FFFFFF" d="M13.535,19.277c-0.477-0.156-1.018-0.254-1.584-0.254c-2.451-0.029-4.638,1.494-4.638,3.319
				c0,1.855,1.769,3.408,4.208,3.408c3.447,0,4.641-1.455,4.641-3.319c0-0.216-0.02-0.439-0.076-0.654
				C15.82,20.723,14.861,20.195,13.535,19.277L13.535,19.277z"/>
			<path fill="#FFFFFF" d="M14.631,11.004c-0.287-2.146-1.85-3.884-3.488-3.935C9.5,7.023,8.398,8.673,8.684,10.83
				c0.281,2.157,1.844,3.955,3.482,4.006C13.807,14.882,14.912,13.176,14.631,11.004L14.631,11.004z"/>
		</g>
	</g>
</g>
</svg>
