<?xml version="1.0" encoding="utf-8"?>
<!-- Generator: Adobe Illustrator 16.0.0, SVG Export Plug-In . SVG Version: 6.00 Build 0)  -->
<!DOCTYPE svg PUBLIC "-//W3C//DTD SVG 1.1//EN" "http://www.w3.org/Graphics/SVG/1.1/DTD/svg11.dtd">
<svg version="1.1" id="ОТСТУП" xmlns="http://www.w3.org/2000/svg" xmlns:xlink="http://www.w3.org/1999/xlink" x="0px"
	 y="0px" width="30px" height="30px" viewBox="0 0 30 30" enable-background="new 0 0 30 30" xml:space="preserve">
<g>
	<g>
		<defs>
			<rect id="SVGID_1_" x="2.709" y="6.5" width="24.583" height="17.001"/>
		</defs>
		<clipPath id="SVGID_2_">
			<use xlink:href="#SVGID_1_"  overflow="visible"/>
		</clipPath>
		<path clip-path="url(#SVGID_2_)" d="M26.8,6.496H13.107c-0.262,0-0.475,0.213-0.475,0.475s0.213,0.475,0.475,0.475H26.8
			c0.262,0,0.475-0.213,0.475-0.475S27.062,6.496,26.8,6.496L26.8,6.496z M26.8,6.496"/>
	</g>
	<path d="M13.107,11.457h8.985c0.262,0,0.475-0.213,0.475-0.475c0-0.263-0.213-0.475-0.475-0.475h-8.985
		c-0.262,0-0.475,0.212-0.475,0.475C12.633,11.244,12.846,11.457,13.107,11.457L13.107,11.457z M13.107,11.457"/>
	<path d="M25.622,14.518H13.107c-0.262,0-0.475,0.211-0.475,0.475c0,0.262,0.213,0.475,0.475,0.475h12.515
		c0.264,0,0.475-0.213,0.475-0.475C26.097,14.729,25.886,14.518,25.622,14.518L25.622,14.518z M25.622,14.518"/>
	<path d="M24.446,18.529H13.107c-0.262,0-0.475,0.213-0.475,0.477c0,0.26,0.213,0.473,0.475,0.473h11.339
		c0.262,0,0.475-0.213,0.475-0.473C24.921,18.742,24.708,18.529,24.446,18.529L24.446,18.529z M24.446,18.529"/>
	<path d="M18.563,22.541h-5.456c-0.262,0-0.475,0.213-0.475,0.475s0.213,0.475,0.475,0.475h5.456c0.262,0,0.475-0.213,0.475-0.475
		S18.825,22.541,18.563,22.541L18.563,22.541z M18.563,22.541"/>
	<path d="M9.242,14.518H4.328l1.24-1.24c0.186-0.184,0.186-0.484,0-0.67s-0.484-0.186-0.67,0l-2.051,2.049l-0.002,0.002
		c-0.01,0.012-0.02,0.021-0.029,0.031c-0.002,0.004-0.004,0.008-0.006,0.012c-0.008,0.008-0.016,0.018-0.021,0.027
		c-0.002,0.002-0.004,0.006-0.006,0.006c-0.006,0.012-0.012,0.021-0.018,0.033c-0.002,0.002-0.002,0.004-0.004,0.006
		c-0.006,0.014-0.012,0.023-0.018,0.035v0.006c-0.006,0.012-0.01,0.025-0.014,0.039c-0.002,0.002-0.002,0.004-0.002,0.004
		c-0.004,0.014-0.008,0.027-0.01,0.043c-0.002,0.002-0.002,0.006-0.002,0.006c-0.002,0.016-0.004,0.027-0.006,0.037
		c-0.002,0.016-0.002,0.033-0.002,0.049s0,0.031,0.002,0.047c0.002,0.014,0.004,0.023,0.006,0.035c0,0.002,0,0.008,0.002,0.01
		c0.002,0.016,0.006,0.027,0.01,0.041c0,0.002,0,0.004,0.002,0.006c0.004,0.012,0.008,0.025,0.014,0.039c0,0,0,0.002,0.002,0.004
		c0.004,0.012,0.01,0.023,0.016,0.035c0.002,0.002,0.002,0.004,0.004,0.008c0.006,0.01,0.012,0.021,0.02,0.031
		c0,0,0.002,0.006,0.004,0.008c0.006,0.01,0.014,0.018,0.021,0.029c0.002,0.002,0.004,0.004,0.006,0.008
		c0.01,0.012,0.02,0.021,0.029,0.031l0.002,0.002l2.051,2.051c0.092,0.094,0.213,0.141,0.336,0.141c0.121,0,0.242-0.047,0.334-0.141
		c0.186-0.186,0.186-0.486,0-0.67l-1.238-1.24h4.912c0.262,0,0.475-0.213,0.475-0.475S9.504,14.518,9.242,14.518L9.242,14.518z
		 M9.242,14.518"/>
</g>
</svg>
