<?xml version="1.0" encoding="utf-8"?>
<!-- Generator: Adobe Illustrator 16.0.0, SVG Export Plug-In . SVG Version: 6.00 Build 0)  -->
<!DOCTYPE svg PUBLIC "-//W3C//DTD SVG 1.1//EN" "http://www.w3.org/Graphics/SVG/1.1/DTD/svg11.dtd">
<svg version="1.1" id="Layer_1" xmlns="http://www.w3.org/2000/svg" xmlns:xlink="http://www.w3.org/1999/xlink" x="0px" y="0px"
	 width="30px" height="30px" viewBox="0 0 30 30" enable-background="new 0 0 30 30" xml:space="preserve">
<g id="ПО_ЛЕВОМУ">
	<g>
		<path d="M4.955,14.227H23.5c0.209,0,0.391-0.076,0.543-0.229s0.23-0.334,0.23-0.543V11.91c0-0.208-0.078-0.392-0.23-0.542
			c-0.152-0.153-0.334-0.23-0.543-0.23H4.955c-0.209,0-0.391,0.077-0.543,0.23c-0.152,0.15-0.23,0.334-0.23,0.542v1.546
			c0,0.209,0.078,0.391,0.23,0.543C4.564,14.151,4.746,14.227,4.955,14.227L4.955,14.227z"/>
		<path d="M4.955,9.591h13.908c0.209,0,0.391-0.076,0.545-0.229c0.152-0.154,0.229-0.334,0.229-0.544V7.274
			c0-0.21-0.076-0.391-0.229-0.545C19.254,6.578,19.072,6.5,18.863,6.5H4.955c-0.209,0-0.391,0.077-0.543,0.229
			c-0.152,0.154-0.23,0.335-0.23,0.545v1.545c0,0.21,0.078,0.39,0.23,0.544C4.564,9.515,4.746,9.591,4.955,9.591L4.955,9.591z"/>
		<path d="M25.59,20.641c-0.154-0.152-0.336-0.23-0.545-0.23H4.955c-0.209,0-0.391,0.078-0.543,0.23
			c-0.152,0.151-0.23,0.334-0.23,0.543v1.545c0,0.209,0.078,0.391,0.23,0.543c0.152,0.151,0.334,0.229,0.543,0.229h20.09
			c0.209,0,0.391-0.078,0.545-0.229c0.152-0.152,0.229-0.334,0.229-0.543v-1.545C25.818,20.975,25.742,20.792,25.59,20.641
			L25.59,20.641z"/>
		<path d="M4.955,18.865H20.41c0.209,0,0.389-0.076,0.543-0.229c0.152-0.154,0.229-0.334,0.229-0.546v-1.546
			c0-0.209-0.076-0.391-0.229-0.541c-0.154-0.154-0.334-0.23-0.543-0.23H4.955c-0.209,0-0.391,0.076-0.543,0.23
			c-0.152,0.15-0.23,0.332-0.23,0.541v1.546c0,0.212,0.078,0.392,0.23,0.546C4.564,18.789,4.746,18.865,4.955,18.865L4.955,18.865z"
			/>
	</g>
</g>
</svg>
