<?xml version="1.0" encoding="utf-8"?>
<!-- Generator: Adobe Illustrator 16.0.0, SVG Export Plug-In . SVG Version: 6.00 Build 0)  -->
<!DOCTYPE svg PUBLIC "-//W3C//DTD SVG 1.1//EN" "http://www.w3.org/Graphics/SVG/1.1/DTD/svg11.dtd">
<svg version="1.1" id="Layer_1" xmlns="http://www.w3.org/2000/svg" xmlns:xlink="http://www.w3.org/1999/xlink" x="0px" y="0px"
	 width="30px" height="30px" viewBox="0 0 30 30" enable-background="new 0 0 30 30" xml:space="preserve">
<g id="ПО_ЦЕНТРУ">
	<g>
		<path d="M25.818,21.184v1.545c0,0.209-0.076,0.391-0.229,0.543c-0.153,0.151-0.336,0.229-0.545,0.229H4.955
			c-0.209,0-0.391-0.078-0.543-0.229c-0.152-0.152-0.23-0.334-0.23-0.543v-1.545c0-0.209,0.078-0.392,0.23-0.543
			c0.152-0.152,0.334-0.23,0.543-0.23h20.09c0.209,0,0.391,0.078,0.545,0.23C25.742,20.792,25.818,20.975,25.818,21.184
			L25.818,21.184z M9.592,15.773c-0.209,0-0.391,0.076-0.545,0.229c-0.152,0.151-0.229,0.334-0.229,0.543v1.546
			c0,0.211,0.076,0.391,0.229,0.545c0.154,0.152,0.336,0.229,0.545,0.229H20.41c0.209,0,0.389-0.076,0.543-0.229
			c0.152-0.154,0.229-0.334,0.229-0.545v-1.546c0-0.209-0.076-0.392-0.229-0.543c-0.154-0.151-0.334-0.229-0.543-0.229H9.592z
			 M6.5,14.227h17c0.209,0,0.391-0.076,0.543-0.229s0.23-0.334,0.23-0.543V11.91c0-0.208-0.078-0.392-0.23-0.542
			c-0.152-0.153-0.334-0.23-0.543-0.23h-17c-0.209,0-0.391,0.077-0.543,0.23c-0.152,0.15-0.229,0.334-0.229,0.542v1.546
			c0,0.209,0.076,0.391,0.229,0.543S6.291,14.227,6.5,14.227L6.5,14.227z M11.137,9.591h7.726c0.21,0,0.392-0.076,0.546-0.229
			c0.151-0.154,0.229-0.336,0.229-0.544V7.274c0-0.21-0.076-0.391-0.229-0.545C19.254,6.578,19.072,6.5,18.863,6.5h-7.727
			c-0.209,0-0.391,0.077-0.543,0.229c-0.152,0.154-0.23,0.335-0.23,0.545v1.545c0,0.208,0.078,0.39,0.23,0.544
			C10.746,9.515,10.928,9.591,11.137,9.591L11.137,9.591z"/>
	</g>
</g>
</svg>
