<?xml version="1.0" encoding="utf-8"?>
<!-- Generator: Adobe Illustrator 16.0.0, SVG Export Plug-In . SVG Version: 6.00 Build 0)  -->
<!DOCTYPE svg PUBLIC "-//W3C//DTD SVG 1.1//EN" "http://www.w3.org/Graphics/SVG/1.1/DTD/svg11.dtd">
<svg version="1.1" id="Layer_1" xmlns="http://www.w3.org/2000/svg" xmlns:xlink="http://www.w3.org/1999/xlink" x="0px" y="0px"
	 width="30px" height="30px" viewBox="0 0 30 30" enable-background="new 0 0 30 30" xml:space="preserve">
<g id="ЖИРНЫЙ">
	<g>
		<path d="M18.955,14.479c1.543-0.684,2.414-1.965,2.414-3.598c0-1.452-0.586-2.625-1.693-3.394C18.758,6.852,17.477,6.5,16.07,6.5
			H7.928v2.86h1.43v11.281h-1.43v2.86h7.648c1.248,0,3.031-0.188,4.436-1.09c1.367-0.875,2.061-2.201,2.061-3.943
			C22.072,16.459,20.896,14.979,18.955,14.479L18.955,14.479z M15.18,13.233h-2.455V9.361h2.195c2.186,0,3.076,0.534,3.076,1.843
			C17.996,12.881,16.465,13.233,15.18,13.233L15.18,13.233z M12.725,16.178h2.594c2.402,0,3.381,0.627,3.381,2.161
			c0,1.525-1.177,2.302-3.496,2.302h-2.479V16.178z"/>
	</g>
</g>
</svg>
