<?xml version="1.0" encoding="utf-8"?>
<!-- Generator: Adobe Illustrator 16.0.0, SVG Export Plug-In . SVG Version: 6.00 Build 0)  -->
<!DOCTYPE svg PUBLIC "-//W3C//DTD SVG 1.1//EN" "http://www.w3.org/Graphics/SVG/1.1/DTD/svg11.dtd">
<svg version="1.1" id="Layer_1" xmlns="http://www.w3.org/2000/svg" xmlns:xlink="http://www.w3.org/1999/xlink" x="0px" y="0px"
	 width="30px" height="30px" viewBox="0 0 30 30" enable-background="new 0 0 30 30" xml:space="preserve">
<g id="РЕДАКТИРОВАТЬ_1_">
	<g opacity="0.7">
		<path fill="#4751A2" d="M21.705,10.502l-2.117-2.116c-0.289-0.291-0.605-0.428-0.977-0.428c-0.316,0-0.604,0.127-0.854,0.372
			l-1.69,1.664l-6.754,6.754c-0.125,0.152-0.188,0.277-0.205,0.344l-1.129,4.002c-0.023,0.082-0.041,0.164-0.041,0.248
			c0,0.344,0.33,0.701,0.756,0.701c0.098,0,0.166-0.014,0.221-0.027l3.975-1.156c0.135-0.039,0.248-0.084,0.33-0.164l6.794-6.78
			l1.664-1.664c0.221-0.221,0.344-0.496,0.387-0.824C22.064,11.055,21.939,10.737,21.705,10.502L21.705,10.502z M12.297,19.484
			l-2.502,0.703l0.729-2.504l6.08-6.08l1.801,1.775L12.297,19.484z M19.477,12.305l-1.801-1.775l0.961-0.961l1.775,1.775
			L19.477,12.305z"/>
	</g>
</g>
</svg>
