<?xml version="1.0" encoding="utf-8"?>
<!-- Generator: Adobe Illustrator 16.0.0, SVG Export Plug-In . SVG Version: 6.00 Build 0)  -->
<!DOCTYPE svg PUBLIC "-//W3C//DTD SVG 1.1//EN" "http://www.w3.org/Graphics/SVG/1.1/DTD/svg11.dtd">
<svg version="1.1" id="Layer_1" xmlns="http://www.w3.org/2000/svg" xmlns:xlink="http://www.w3.org/1999/xlink" x="0px" y="0px"
	 width="30px" height="30px" viewBox="0 0 30 30" enable-background="new 0 0 30 30" xml:space="preserve">
<g id="РЕДАКТИРОВАТЬ">
	<g>
		<polygon fill="#4751A2" points="16.313,11.975 17.531,13.176 18.164,12.526 16.965,11.325 		"/>
		<polygon fill="#4751A2" points="11.473,16.816 10.98,18.51 12.674,18.034 16.807,13.903 15.588,12.702 		"/>
		<path fill="#4751A2" d="M15,3.712C8.766,3.712,3.711,8.766,3.711,15c0,6.234,5.055,11.29,11.289,11.29
			c6.234,0,11.289-5.056,11.289-11.29C26.289,8.765,21.234,3.712,15,3.712z M19.021,13.139l-1.125,1.125l-4.601,4.589
			c-0.057,0.056-0.131,0.086-0.223,0.111l-2.691,0.781c-0.035,0.012-0.082,0.02-0.148,0.02c-0.287,0-0.512-0.242-0.512-0.475
			c0-0.057,0.014-0.111,0.029-0.168l0.764-2.709c0.012-0.045,0.055-0.129,0.139-0.232l4.57-4.57l1.145-1.125
			c0.168-0.166,0.363-0.252,0.576-0.252c0.252,0,0.467,0.094,0.662,0.289l1.432,1.434c0.16,0.158,0.244,0.371,0.244,0.623
			C19.254,12.803,19.17,12.991,19.021,13.139z"/>
	</g>
</g>
</svg>
