<?xml version="1.0" encoding="utf-8"?>
<!-- Generator: Adobe Illustrator 16.0.0, SVG Export Plug-In . SVG Version: 6.00 Build 0)  -->
<!DOCTYPE svg PUBLIC "-//W3C//DTD SVG 1.1//EN" "http://www.w3.org/Graphics/SVG/1.1/DTD/svg11.dtd">
<svg version="1.1" id="Layer_1" xmlns="http://www.w3.org/2000/svg" xmlns:xlink="http://www.w3.org/1999/xlink" x="0px" y="0px"
	 width="30px" height="30px" viewBox="0 0 30 30" enable-background="new 0 0 30 30" xml:space="preserve">
<g id="РЕДАКТИРОВАТЬ_БЕЛАЯ">
	<g>
		<g>
			<path fill="#CDCDCD" d="M21.705,10.504l-2.117-2.118c-0.289-0.291-0.607-0.428-0.979-0.428c-0.316,0-0.603,0.127-0.853,0.373
				l-1.69,1.663l-6.754,6.754c-0.125,0.152-0.188,0.277-0.205,0.346l-1.129,4c-0.023,0.084-0.041,0.164-0.041,0.248
				c0,0.344,0.33,0.701,0.756,0.701c0.098,0,0.166-0.012,0.219-0.029l3.977-1.154c0.135-0.039,0.246-0.084,0.33-0.164l6.794-6.78
				l1.664-1.664c0.221-0.219,0.344-0.494,0.385-0.824C22.063,11.053,21.939,10.739,21.705,10.504L21.705,10.504z M12.297,19.484
				l-2.502,0.703l0.727-2.504l6.082-6.08l1.801,1.775L12.297,19.484z M19.477,12.305l-1.803-1.773l0.963-0.963l1.775,1.775
				L19.477,12.305z"/>
		</g>
	</g>
</g>
</svg>
