<?xml version="1.0" encoding="UTF-8"?>
<!DOCTYPE svg PUBLIC "-//W3C//DTD SVG 1.1//EN" "http://www.w3.org/Graphics/SVG/1.1/DTD/svg11.dtd">
<!-- Creator: CorelDRAW X7 -->
<svg xmlns="http://www.w3.org/2000/svg" xml:space="preserve" width="1.03781in" height="0.953161in" version="1.1" style="shape-rendering:geometricPrecision; text-rendering:geometricPrecision; image-rendering:optimizeQuality; fill-rule:evenodd; clip-rule:evenodd"
viewBox="0 0 148 136"
 xmlns:xlink="http://www.w3.org/1999/xlink">
 <defs>
  <style type="text/css">
   <![CDATA[
    .fil0 {fill:#ACACAC;fill-rule:nonzero}
   ]]>
  </style>
 </defs>
 <g id="Слой_x0020_1">
  <metadata id="CorelCorpID_0Corel-Layer"/>
  <g>
   <path class="fil0" d="M147 2l-146 0 0 -2 146 0 1 1 -1 1zm0 -2l1 0 0 1 -1 -1zm-1 135l0 -134 2 0 0 134 -1 1 -1 -1zm2 0l0 1 -1 0 1 -1zm-147 -1l146 0 0 2 -146 0 -1 -1 1 -1zm0 2l-1 0 0 -1 1 1zm1 -135l0 134 -2 0 0 -134 1 -1 1 1zm-2 0l0 -1 1 0 -1 1z"/>
  </g>
 </g>
</svg>
