<?xml version="1.0" encoding="utf-8"?>
<!-- Generator: Adobe Illustrator 16.0.0, SVG Export Plug-In . SVG Version: 6.00 Build 0)  -->
<!DOCTYPE svg PUBLIC "-//W3C//DTD SVG 1.1//EN" "http://www.w3.org/Graphics/SVG/1.1/DTD/svg11.dtd">
<svg version="1.1" id="Слой_1" xmlns="http://www.w3.org/2000/svg" xmlns:xlink="http://www.w3.org/1999/xlink" x="0px" y="0px"
	 width="230px" height="82px" viewBox="0 0 230 82" enable-background="new 0 0 230 82" xml:space="preserve">
<g>
	<path fill="#2F2E2D" d="M141.232,27.601v28.384h4.316c4.26,0,7.34-0.487,9.26-1.462c1.918-0.979,3.488-2.622,4.703-4.924
		s1.828-5.139,1.828-8.519c0-5.183-1.453-9.21-4.35-12.067c-2.615-2.575-6.818-3.858-12.6-3.858h-1.934v-0.048h-10.496v-8.935
		h11.031c7.113,0,12.395,0.885,15.859,2.644c3.453,1.758,6.307,4.614,8.545,8.585c2.238,3.959,3.35,8.587,3.35,13.883
		c0,3.768-0.625,7.228-1.873,10.38c-1.25,3.153-2.99,5.771-5.193,7.861c-2.205,2.075-4.588,3.514-7.156,4.321
		c-2.568,0.793-7.023,1.19-13.361,1.19h-11.201V27.601H141.232z"/>
	<rect x="117.969" y="16.173" fill="#2F2E2D" width="9.271" height="8.935"/>
	<path fill="#2F2E2D" d="M38.867,16.173h9.896c5.408,0,9.269,0.476,11.565,1.441c2.306,0.964,4.146,2.574,5.543,4.809
		c1.397,2.235,2.102,4.876,2.102,7.94c0,3.21-0.772,5.897-2.308,8.053c-1.543,2.165-3.861,3.801-6.962,4.9l9.648,21.721H58.173
		l-9.093-20.689h-0.944v18.445l-9.27-24.046V16.173z M48.137,35.298h2.953c3.001,0,5.058-0.386,6.193-1.169
		c1.125-0.783,1.693-2.075,1.693-3.89c0-1.067-0.284-1.997-0.841-2.791c-0.556-0.794-1.307-1.362-2.25-1.703
		c-0.931-0.351-2.658-0.522-5.169-0.522h-2.579V35.298z"/>
	<path fill="#2F2E2D" d="M18.95,16.173h9.384l18.835,48.864h-9.691l-3.816-10.074H13.599L9.69,65.037H0L18.95,16.173z
		 M23.653,29.159l-6.636,16.823h13.236L23.653,29.159z"/>
	<rect x="117.969" y="27.587" fill="#2F2E2D" width="9.271" height="37.45"/>
	<path fill="#37396C" d="M78.804,15.708l17.645,9.644l-4.748,8.709l-17.691-9.563L78.804,15.708z M77.552,13.859L77.552,13.859
		c0.48,0.26,0.659,0.865,0.4,1.345l-4.734,8.722c-0.261,0.479-0.867,0.658-1.348,0.399c-0.479-0.261-0.66-0.867-0.399-1.346
		l4.734-8.721C76.465,13.777,77.072,13.599,77.552,13.859z M98.705,25.306L98.705,25.306c0.481,0.259,0.662,0.865,0.398,1.344
		l-4.73,8.723c-0.261,0.478-0.868,0.657-1.349,0.397c-0.48-0.26-0.66-0.863-0.399-1.344l4.733-8.721
		C97.619,25.223,98.225,25.045,98.705,25.306z"/>
	<polygon fill="#37396C" points="78.469,28.023 86.637,32.403 63.929,74.614 55.763,70.235 	"/>
	<g>
		<path fill="#2F2E2D" d="M113.863,43.384c-1.375-2.1-3.544-3.834-6.509-5.228c1.771-1.329,3.055-2.756,3.839-4.277
			c0.784-1.52,1.181-3.209,1.181-5.072c0-2.857-0.875-5.34-2.611-7.451c-1.739-2.098-4.079-3.539-7.022-4.32
			c-2.078-0.58-5.35-0.863-9.839-0.863h-7.724v0.225l12.115,6.622c0.102-0.042,0.205-0.081,0.31-0.112
			c0.704-0.208,1.479-0.177,2.192,0.134c0.188,0.072,0.362,0.171,0.521,0.29c0.631,0.428,1.066,1.046,1.269,1.728
			c0.235,0.782,0.168,1.66-0.253,2.436l-5.049,9.3c-0.417,0.772-1.119,1.305-1.901,1.536v0.004
			c-0.779,0.232-1.654,0.165-2.429-0.253l-0.007-0.003l-0.003,0.003c-0.774-0.419-1.31-1.116-1.542-1.896l-2.512-1.393l-2.711,5.059
			v25.185h13.768c3.968,0,7.067-0.558,9.317-1.678c2.25-1.113,4.09-2.803,5.521-5.061c1.421-2.257,2.135-4.754,2.135-7.496
			C115.918,47.943,115.238,45.47,113.863,43.384z M104.74,54.726c-1.363,0.978-4.01,1.464-7.93,1.464h-2.362V43.668h1.965
			c3.715,0,6.374,0.612,7.976,1.825c1.601,1.214,2.396,2.881,2.396,4.979C106.786,52.334,106.104,53.75,104.74,54.726z"/>
	</g>
</g>
</svg>
