<?xml version="1.0" encoding="utf-8"?>
<!-- Generator: Adobe Illustrator 16.0.0, SVG Export Plug-In . SVG Version: 6.00 Build 0)  -->
<!DOCTYPE svg PUBLIC "-//W3C//DTD SVG 1.1//EN" "http://www.w3.org/Graphics/SVG/1.1/DTD/svg11.dtd">
<svg version="1.1" id="Слой_1" xmlns="http://www.w3.org/2000/svg" xmlns:xlink="http://www.w3.org/1999/xlink" x="0px" y="0px"
	 width="170px" height="61px" viewBox="0 0 170 61" enable-background="new 0 0 170 61" xml:space="preserve">
<g>
	<path fill="#FFFFFF" d="M140.613,13.888v28.444h4.299c4.242,0,7.309-0.487,9.219-1.467c1.912-0.979,3.473-2.624,4.682-4.934
		c1.211-2.305,1.822-5.147,1.822-8.534c0-5.193-1.447-9.23-4.332-12.093c-2.602-2.58-6.787-3.866-12.545-3.866h-1.924v-0.047
		h-10.451V2.438h10.984c7.082,0,12.34,0.887,15.789,2.648c3.439,1.763,6.279,4.627,8.508,8.603
		c2.229,3.969,3.336,8.605,3.336,13.913c0,3.773-0.623,7.238-1.867,10.399c-1.244,3.159-2.977,5.786-5.168,7.877
		c-2.197,2.08-4.568,3.524-7.127,4.33c-2.557,0.796-6.99,1.194-13.301,1.194h-11.154V13.888H140.613z"/>
	<rect x="117.453" y="2.438" fill="#FFFFFF" width="9.23" height="8.953"/>
	<path fill="#FFFFFF" d="M38.697,2.438h9.853c5.384,0,9.229,0.477,11.515,1.444c2.296,0.966,4.127,2.579,5.519,4.819
		c1.391,2.237,2.093,4.887,2.093,7.958c0,3.214-0.769,5.908-2.298,8.069c-1.537,2.169-3.844,3.806-6.932,4.909l9.606,21.766H57.918
		l-9.053-20.732h-0.939v18.485l-9.229-24.099V2.438z M47.926,21.604h2.94c2.987,0,5.036-0.389,6.165-1.173
		c1.12-0.786,1.686-2.08,1.686-3.899c0-1.069-0.283-2-0.837-2.794c-0.554-0.797-1.3-1.365-2.239-1.708
		c-0.927-0.353-2.646-0.521-5.146-0.521h-2.568V21.604z"/>
	<path fill="#FFFFFF" d="M18.866,2.438h9.344l18.752,48.965h-9.648l-3.8-10.096H13.539L9.647,51.403H0L18.866,2.438z M23.55,15.451
		l-6.606,16.856h13.177L23.55,15.451z"/>
	<rect x="117.453" y="13.876" fill="#FFFFFF" width="9.23" height="37.527"/>
	<path fill="#878787" d="M78.459,1.972l17.568,9.662L91.3,20.363l-17.614-9.584L78.459,1.972z M77.213,0.121L77.213,0.121
		c0.479,0.259,0.656,0.866,0.398,1.347l-4.714,8.739c-0.26,0.481-0.863,0.66-1.342,0.402c-0.477-0.264-0.657-0.87-0.397-1.349
		l4.713-8.74C76.131,0.039,76.735-0.141,77.213,0.121z M98.274,11.588L98.274,11.588c0.478,0.262,0.657,0.869,0.397,1.347
		l-4.711,8.74c-0.26,0.482-0.865,0.66-1.343,0.401c-0.479-0.258-0.657-0.864-0.398-1.347l4.712-8.739
		C97.191,11.508,97.796,11.33,98.274,11.588z"/>
	<polygon fill="#878787" points="78.125,14.312 86.258,18.701 63.65,61 55.519,56.613 	"/>
	<g>
		<path fill="#FFFFFF" d="M113.365,29.704c-1.369-2.102-3.529-3.842-6.48-5.238c1.764-1.33,3.042-2.763,3.823-4.284
			c0.778-1.524,1.175-3.22,1.175-5.083c0-2.864-0.871-5.354-2.602-7.468c-1.73-2.102-4.061-3.546-6.989-4.33
			c-2.07-0.58-5.327-0.864-9.796-0.864h-7.691v0.225L96.867,9.3c0.101-0.043,0.205-0.082,0.309-0.113
			c0.7-0.21,1.475-0.177,2.184,0.135c0.188,0.072,0.361,0.17,0.518,0.289c0.628,0.429,1.061,1.048,1.264,1.732
			c0.233,0.784,0.167,1.664-0.252,2.441l-5.027,9.32c-0.416,0.772-1.113,1.309-1.893,1.541l0.001,0.003
			c-0.778,0.232-1.647,0.163-2.42-0.254l-0.007-0.004l-0.003,0.004c-0.77-0.421-1.304-1.12-1.534-1.9l-2.502-1.395l-2.699,5.068
			v25.237h13.708c3.951,0,7.038-0.559,9.276-1.682c2.239-1.115,4.072-2.81,5.496-5.072c1.416-2.262,2.128-4.763,2.128-7.512
			C115.413,34.271,114.734,31.796,113.365,29.704z M104.283,41.07c-1.357,0.977-3.994,1.466-7.896,1.466h-2.353V29.99h1.955
			c3.7,0,6.348,0.614,7.943,1.829c1.593,1.217,2.385,2.887,2.385,4.99C106.318,38.673,105.64,40.094,104.283,41.07z"/>
	</g>
</g>
</svg>
