<?xml version="1.0" encoding="utf-8"?>
<!-- Generator: Adobe Illustrator 16.0.0, SVG Export Plug-In . SVG Version: 6.00 Build 0)  -->
<!DOCTYPE svg PUBLIC "-//W3C//DTD SVG 1.1//EN" "http://www.w3.org/Graphics/SVG/1.1/DTD/svg11.dtd">
<svg version="1.1" id="Слой_1" xmlns="http://www.w3.org/2000/svg" xmlns:xlink="http://www.w3.org/1999/xlink" x="0px" y="0px"
	 width="183px" height="82px" viewBox="0 0 183 82" enable-background="new 0 0 183 82" xml:space="preserve">
<path fill="#858472" d="M169.896,55.773c0.221,0.479,0.498,0.902,0.832,1.255c0.283,0.31,0.637,0.586,1.059,0.832
	c0.43,0.246,0.927,0.372,1.507,0.372c0.649,0,1.204-0.189,1.664-0.562c0.454-0.378,0.826-0.907,1.122-1.588
	c0.297-0.688,0.505-1.488,0.631-2.402c0.12-0.921,0.183-1.923,0.183-3.007c0-1.078-0.062-2.087-0.183-3.007
	c-0.126-0.927-0.34-1.728-0.649-2.402c-0.309-0.681-0.699-1.21-1.172-1.589c-0.474-0.385-1.065-0.574-1.778-0.574
	c-0.485,0-0.914,0.064-1.305,0.196c-0.385,0.126-0.726,0.252-1.003,0.378c-0.334,0.171-0.636,0.359-0.907,0.573V55.773z
	 M161.99,35.727v-1.135h4.521c0.649,0,1.197,0.082,1.639,0.252c0.442,0.164,0.795,0.436,1.06,0.807
	c0.259,0.378,0.441,0.883,0.542,1.513c0.095,0.637,0.146,1.419,0.146,2.358v3.007c0.309-0.195,0.655-0.385,1.053-0.554
	c0.358-0.126,0.775-0.252,1.255-0.378c0.479-0.132,1.033-0.195,1.663-0.195c1.369,0,2.561,0.239,3.587,0.719
	c1.022,0.485,1.873,1.142,2.548,1.973c0.681,0.826,1.179,1.81,1.507,2.944c0.327,1.135,0.491,2.345,0.491,3.638
	c0,1.286-0.164,2.49-0.491,3.625c-0.328,1.135-0.82,2.118-1.488,2.956c-0.662,0.839-1.494,1.494-2.496,1.968
	c-0.996,0.473-2.156,0.712-3.474,0.712c-0.751,0-1.406-0.101-1.961-0.297c-0.548-0.194-1.009-0.435-1.361-0.718
	c-0.436-0.31-0.77-0.662-1.016-1.054h-0.188l-1.33,1.689h-3.215V39.515c0-1.135-0.158-2.049-0.467-2.742
	c-0.31-0.7-1.021-1.046-2.137-1.046H161.99z M140.998,42.914v-1.135h4.501c0.656,0,1.198,0.082,1.64,0.246
	c0.44,0.17,0.794,0.441,1.059,0.826c0.265,0.378,0.447,0.883,0.549,1.507c0.106,0.63,0.157,1.412,0.157,2.345v6.316
	c0,1.948,0.277,3.304,0.832,4.066s1.35,1.147,2.383,1.147c0.58,0,1.078-0.126,1.488-0.379c0.416-0.252,0.763-0.528,1.046-0.825
	c0.335-0.353,0.624-0.775,0.87-1.255V41.779h4.917v17.777h-3.214l-1.331-1.695h-0.189c-0.378,0.41-0.794,0.763-1.235,1.06
	c-0.409,0.283-0.901,0.523-1.481,0.718c-0.579,0.196-1.248,0.297-2.011,0.297c-2.377,0-4.136-0.549-5.276-1.646
	c-1.142-1.097-1.715-2.862-1.715-5.308v-6.279c0-1.135-0.158-2.049-0.467-2.742c-0.314-0.699-1.027-1.046-2.156-1.046H140.998z
	 M131.019,35.727v-1.135h4.521c0.649,0,1.197,0.082,1.639,0.252c0.441,0.164,0.794,0.436,1.06,0.807
	c0.258,0.378,0.44,0.883,0.542,1.519c0.095,0.631,0.145,1.419,0.145,2.352v20.034h-4.917V39.515c0-1.135-0.158-2.049-0.467-2.742
	c-0.309-0.7-1.021-1.046-2.137-1.046H131.019z M107.314,47.452c0-1.916,0.315-3.701,0.939-5.352
	c0.631-1.646,1.494-3.083,2.604-4.306c1.104-1.223,2.421-2.194,3.947-2.9c1.525-0.706,3.189-1.059,4.979-1.059
	c2.383,0,4.3,0.309,5.75,0.933c1.449,0.618,2.527,1.33,3.228,2.131c0.504,0.649,0.795,1.488,0.87,2.521s0.113,2.112,0.113,3.228
	h-1.135c-0.479-2.289-1.361-4.047-2.636-5.271c-1.279-1.229-2.962-1.84-5.062-1.84c-1.154,0-2.244,0.189-3.253,0.561
	c-1.009,0.378-1.897,1.028-2.654,1.942c-0.756,0.921-1.355,2.137-1.784,3.669c-0.435,1.526-0.649,3.442-0.649,5.743
	c0,1.443,0.151,2.837,0.46,4.186c0.31,1.35,0.802,2.535,1.463,3.562c0.668,1.027,1.525,1.854,2.572,2.477
	c1.046,0.625,2.333,0.934,3.846,0.934c1.74,0,3.36-0.46,4.854-1.387c1.487-0.92,2.691-2.263,3.605-4.028l1.312,1.021
	c-1.186,2.093-2.629,3.631-4.344,4.614c-1.715,0.989-3.902,1.481-6.557,1.481c-1.992,0-3.764-0.328-5.308-0.99
	c-1.551-0.655-2.855-1.562-3.915-2.723c-1.059-1.16-1.859-2.521-2.415-4.085C107.593,50.951,107.314,49.262,107.314,47.452z
	 M87.192,35.727v-1.135h4.52c0.649,0,1.198,0.082,1.64,0.252c0.44,0.164,0.794,0.436,1.059,0.807
	c0.259,0.378,0.441,0.883,0.542,1.519c0.095,0.631,0.145,1.419,0.145,2.352v10.774l4.584-5.599c0.378-0.453,0.75-0.863,1.116-1.229
	c0.359-0.366,0.75-0.668,1.172-0.92c0.417-0.253,0.89-0.447,1.406-0.574c0.517-0.133,1.097-0.195,1.752-0.195h0.757v0.946
	c-0.75,0-1.431,0.15-2.042,0.46c-0.605,0.303-1.192,0.788-1.747,1.443l-3.675,4.526l5.043,6.727
	c0.655,0.901,1.268,1.576,1.848,2.043c0.58,0.46,1.135,0.75,1.664,0.876v0.807c-0.195,0.089-0.562,0.164-1.091,0.228
	c-0.529,0.069-1.034,0.101-1.513,0.101c-1.06,0-2.056-0.221-2.994-0.655c-0.934-0.436-1.816-1.224-2.642-2.358l-3.639-4.76v7.395
	H90.18V39.515c0-1.135-0.157-2.049-0.466-2.742c-0.309-0.7-1.021-1.046-2.137-1.046H87.192z M73.506,50.674
	c0,1.084,0.082,2.086,0.252,3.007c0.164,0.914,0.41,1.715,0.738,2.402c0.328,0.681,0.738,1.21,1.249,1.588
	c0.504,0.372,1.078,0.562,1.733,0.562s1.229-0.189,1.733-0.562c0.511-0.378,0.927-0.907,1.261-1.588
	c0.328-0.688,0.573-1.488,0.737-2.402c0.158-0.921,0.24-1.923,0.24-3.007c0-1.078-0.082-2.087-0.24-3.007
	c-0.164-0.927-0.41-1.728-0.737-2.402c-0.334-0.681-0.75-1.21-1.261-1.589c-0.504-0.385-1.078-0.574-1.733-0.574
	s-1.229,0.189-1.733,0.574c-0.511,0.379-0.921,0.908-1.249,1.589c-0.328,0.675-0.574,1.476-0.738,2.402
	C73.588,48.587,73.506,49.596,73.506,50.674z M68.399,50.674c0-1.28,0.208-2.49,0.618-3.632c0.417-1.135,1.015-2.124,1.797-2.95
	c0.782-0.831,1.734-1.487,2.862-1.973c1.128-0.479,2.395-0.719,3.801-0.719c1.412,0,2.679,0.239,3.801,0.719
	c1.116,0.485,2.068,1.142,2.85,1.973c0.781,0.826,1.38,1.81,1.797,2.944c0.422,1.135,0.63,2.345,0.63,3.638
	c0,1.286-0.208,2.49-0.63,3.625c-0.417,1.135-1.016,2.118-1.797,2.956c-0.782,0.839-1.734,1.494-2.85,1.968
	c-1.122,0.473-2.389,0.712-3.801,0.712c-1.418,0-2.686-0.239-3.808-0.712c-1.122-0.474-2.074-1.129-2.856-1.968
	c-0.782-0.838-1.38-1.821-1.797-2.956C68.607,53.164,68.399,51.96,68.399,50.674z M52.633,50.674c0,1.084,0.082,2.086,0.252,3.007
	c0.164,0.914,0.41,1.715,0.738,2.402c0.328,0.681,0.738,1.21,1.248,1.588c0.504,0.372,1.078,0.562,1.734,0.562
	s1.229-0.189,1.733-0.562c0.511-0.378,0.927-0.907,1.261-1.588c0.328-0.688,0.573-1.488,0.737-2.402
	c0.158-0.921,0.24-1.923,0.24-3.007c0-1.078-0.082-2.087-0.24-3.007c-0.164-0.927-0.41-1.728-0.737-2.402
	c-0.334-0.681-0.75-1.21-1.261-1.589c-0.504-0.385-1.078-0.574-1.733-0.574s-1.229,0.189-1.734,0.574
	c-0.51,0.379-0.92,0.908-1.248,1.589c-0.328,0.675-0.574,1.476-0.738,2.402C52.715,48.587,52.633,49.596,52.633,50.674z
	 M47.526,50.674c0-1.28,0.208-2.49,0.618-3.632c0.417-1.135,1.015-2.124,1.797-2.95c0.782-0.831,1.734-1.487,2.862-1.973
	c1.128-0.479,2.395-0.719,3.801-0.719c1.412,0,2.679,0.239,3.801,0.719c1.116,0.485,2.068,1.142,2.849,1.973
	c0.782,0.826,1.381,1.81,1.797,2.944c0.422,1.135,0.63,2.345,0.63,3.638c0,1.286-0.208,2.49-0.63,3.625
	c-0.417,1.135-1.016,2.118-1.797,2.956c-0.781,0.839-1.733,1.494-2.849,1.968c-1.122,0.473-2.39,0.712-3.801,0.712
	c-1.418,0-2.686-0.239-3.808-0.712c-1.122-0.474-2.074-1.129-2.856-1.968c-0.782-0.838-1.38-1.821-1.797-2.956
	C47.734,53.164,47.526,51.96,47.526,50.674z M30.335,45.901h2.831c1.538,0,2.805-0.365,3.808-1.097
	c0.996-0.731,1.494-1.999,1.494-3.795c0-0.934-0.17-1.715-0.511-2.339c-0.334-0.631-0.775-1.129-1.317-1.507
	c-0.542-0.372-1.167-0.643-1.879-0.807c-0.706-0.17-1.424-0.252-2.149-0.252c-0.309,0-0.605,0.013-0.883,0.038
	c-0.277,0.025-0.511,0.063-0.712,0.107c-0.246,0.05-0.473,0.094-0.681,0.132V45.901z M30.335,57.671
	c0.221,0.076,0.473,0.14,0.756,0.189c0.504,0.12,1.135,0.183,1.885,0.183h0.183c2.093,0,3.688-0.454,4.791-1.355
	c1.104-0.907,1.652-2.2,1.652-3.877c0-3.474-2.137-5.207-6.405-5.207c-0.012,0-0.019,0-0.031,0h-2.831V57.671z M22.43,35.727v-1.135
	h10.181c1.172,0,2.421,0.063,3.726,0.195c1.305,0.126,2.503,0.422,3.6,0.876c1.091,0.454,1.992,1.122,2.711,2.005
	c0.718,0.876,1.078,2.061,1.078,3.549c0,0.53-0.107,1.072-0.322,1.626s-0.542,1.078-0.977,1.569
	c-0.441,0.493-0.983,0.934-1.633,1.317c-0.649,0.392-1.412,0.7-2.289,0.934c1.223,0.126,2.245,0.365,3.064,0.731
	c0.826,0.366,1.481,0.807,1.967,1.337c0.492,0.529,0.833,1.128,1.028,1.803c0.195,0.668,0.296,1.368,0.296,2.093
	c0,1.443-0.328,2.616-0.978,3.518c-0.649,0.908-1.506,1.614-2.565,2.118c-1.06,0.505-2.25,0.845-3.587,1.028
	c-1.336,0.177-2.673,0.264-4.009,0.264h-8.303V39.515c0-1.135-0.157-2.049-0.473-2.742c-0.315-0.7-1.034-1.046-2.149-1.046H22.43z"
	/>
<rect x="25.385" y="63.955" fill-rule="evenodd" clip-rule="evenodd" fill="#858472" width="155.496" height="1.405"/>
<rect x="31.242" y="67.219" fill-rule="evenodd" clip-rule="evenodd" fill="#858472" width="60.934" height="1.018"/>
<rect x="98.282" y="67.219" fill-rule="evenodd" clip-rule="evenodd" fill="#858472" width="2.799" height="1.018"/>
<rect x="108.841" y="67.219" fill-rule="evenodd" clip-rule="evenodd" fill="#858472" width="36.892" height="1.018"/>
<rect x="152.348" y="67.219" fill-rule="evenodd" clip-rule="evenodd" fill="#858472" width="2.289" height="1.018"/>
<rect x="163.16" y="67.219" fill-rule="evenodd" clip-rule="evenodd" fill="#858472" width="11.322" height="1.018"/>
<path fill="#201600" d="M93.3,67.739c0.15,1.343,0.822,1.879,1.879,1.879c1.09,0,1.778-0.536,1.929-1.879h-0.906
	c-0.066,0.704-0.368,1.141-1.006,1.141c-0.604,0-0.923-0.419-0.99-1.141H93.3z M92.696,70.826v8.118h1.324
	c0.604-1.309,1.343-3.153,1.61-3.824c0.353-0.89,0.688-1.795,0.974-2.818h0.05c-0.084,1.258-0.135,2.215-0.135,3.976v2.667h1.191
	v-8.118h-1.358l-1.358,3.505c-0.369,0.939-0.839,2.097-1.208,3.17h-0.033c0.101-1.273,0.117-2.482,0.117-3.891v-2.784H92.696z
	 M89.643,70.826v8.118h1.241v-8.118H89.643z M85.114,74.684c0.168-0.017,0.319-0.033,0.537-0.033c0.973,0,1.828,0.553,1.828,1.66
	c0,1.073-0.839,1.711-1.794,1.711c-0.202,0-0.369-0.017-0.571-0.05V74.684z M83.84,70.826v8.067c0.52,0.084,1.107,0.135,1.661,0.135
	c0.771,0,1.728-0.235,2.398-0.788c0.554-0.437,0.906-1.107,0.906-2.013c0-1.711-1.358-2.584-2.918-2.584
	c-0.335,0-0.638,0.034-0.772,0.051v-2.868H83.84z M77.046,70.826v8.118h1.292v-3.573h2.399v3.573h1.292v-8.118h-1.292v3.438h-2.399
	v-3.438H77.046z M71.612,73.896c0-0.218,0.017-0.437,0.05-0.621c0.067-0.737,0.604-1.459,1.191-1.459
	c1.04,0,1.442,1.409,1.442,3.086c0,1.628-0.353,3.104-1.426,3.104c-0.353,0-0.939-0.201-1.191-1.359
	c-0.05-0.2-0.067-0.436-0.067-0.67V73.896z M70.337,82.165h1.275v-4.026h0.033c0.218,0.453,0.654,0.939,1.426,0.939
	c1.275,0,2.516-1.19,2.516-4.21c0-2.667-0.923-4.16-2.349-4.16c-0.637,0-1.274,0.302-1.728,1.157h-0.033l-0.067-1.039H70.27
	c0.017,0.57,0.067,1.291,0.067,2.532V82.165z M67.268,76.377c0,0.152-0.017,0.319-0.05,0.471c-0.151,0.805-0.621,1.225-1.191,1.225
	c-0.453,0-0.989-0.369-0.989-1.443c0-1.761,1.56-1.895,2.231-1.895V76.377z M68.526,73.576c0-1.811-0.688-2.868-2.314-2.868
	c-0.805,0-1.543,0.285-1.896,0.537l0.285,0.906c0.386-0.269,0.838-0.42,1.342-0.42c1.006,0,1.292,0.738,1.292,1.828v0.252
	c-1.828,0.017-3.455,0.905-3.455,2.952c0,1.409,0.838,2.314,1.912,2.314c0.704,0,1.274-0.369,1.627-0.99h0.05l0.083,0.856h1.158
	c-0.067-0.52-0.084-1.225-0.084-1.845V73.576z M58.898,75.187h0.554c1.006,0,2.08,0.42,2.08,1.493c0,1.106-0.99,1.459-1.979,1.459
	c-0.251,0-0.503-0.033-0.654-0.051V75.187z M58.915,71.715c0.201-0.034,0.419-0.067,0.654-0.067c0.906,0,1.677,0.319,1.677,1.241
	c0,0.872-0.973,1.376-1.761,1.376h-0.57V71.715z M57.64,78.978c0.318,0.033,0.922,0.084,1.661,0.084c1.56,0,3.522-0.47,3.522-2.365
	c0-1.107-0.772-1.828-1.946-2.029v-0.034c0.922-0.234,1.61-0.955,1.61-1.911c0-1.627-1.677-2.014-3.019-2.014
	c-0.637,0-1.292,0.067-1.828,0.168V78.978z M51.484,70.826v8.118h1.258v-3.657h0.134c1.057,0,1.51,0.654,1.812,1.762
	c0.201,0.704,0.386,1.392,0.587,1.896H56.6c-0.269-0.621-0.486-1.493-0.671-2.164c-0.302-1.123-0.855-2.113-1.979-2.298l2.533-3.656
	h-1.426l-2.13,3.521h-0.185v-3.521H51.484z M44.674,70.826v8.118h1.325c0.604-1.309,1.342-3.153,1.61-3.824
	c0.352-0.89,0.688-1.795,0.973-2.818h0.05c-0.084,1.258-0.134,2.215-0.134,3.976v2.667h1.19v-8.118h-1.358l-1.358,3.505
	c-0.369,0.939-0.839,2.097-1.208,3.17h-0.033c0.101-1.273,0.117-2.482,0.117-3.891v-2.784H44.674z M38.736,70.826v1.072h1.845v7.046
	h1.292v-7.046h1.845v-1.072H38.736z M32.748,70.826v8.118h1.292v-3.573h2.399v3.573h1.292v-8.118h-1.292v3.438H34.04v-3.438H32.748z
	 M27.096,74.517l0.587-2.869c0.168-0.755,0.336-1.728,0.47-2.583h0.05c0.134,0.839,0.285,1.778,0.453,2.583l0.587,2.869H27.096z
	 M29.427,75.556l0.738,3.389h1.275l-2.516-11.306h-1.426l-2.583,11.306h1.258l0.738-3.389H29.427z"/>
<path fill="#201600" d="M147.099,67.739c0.148,1.343,0.811,1.879,1.854,1.879c1.076,0,1.754-0.536,1.903-1.879h-0.894
	c-0.066,0.704-0.364,1.141-0.993,1.141c-0.597,0-0.911-0.419-0.978-1.141H147.099z M146.502,70.826v8.118h1.308
	c0.596-1.309,1.324-3.153,1.589-3.824c0.348-0.89,0.679-1.795,0.961-2.818h0.049c-0.082,1.258-0.132,2.215-0.132,3.976v2.667h1.176
	v-8.118h-1.341l-1.341,3.505c-0.365,0.939-0.828,2.097-1.192,3.17h-0.033c0.1-1.273,0.116-2.482,0.116-3.891v-2.784H146.502z
	 M143.489,70.826v8.118h1.225v-8.118H143.489z M139.021,74.684c0.165-0.017,0.313-0.033,0.529-0.033c0.96,0,1.804,0.553,1.804,1.66
	c0,1.073-0.827,1.711-1.771,1.711c-0.199,0-0.364-0.017-0.562-0.05V74.684z M137.762,70.826v8.067
	c0.513,0.084,1.093,0.135,1.639,0.135c0.762,0,1.705-0.235,2.367-0.788c0.546-0.437,0.894-1.107,0.894-2.013
	c0-1.711-1.341-2.584-2.88-2.584c-0.331,0-0.629,0.034-0.761,0.051v-2.868H137.762z M131.058,70.826v8.118h1.274v-3.573h2.367v3.573
	h1.274v-8.118h-1.274v3.438h-2.367v-3.438H131.058z M121.506,70.826l2.4,3.706c-1.01,0.219-1.522,1.208-1.805,2.299
	c-0.198,0.687-0.413,1.543-0.662,2.113h1.242c0.215-0.453,0.348-1.007,0.513-1.711c0.397-1.358,0.662-1.963,1.805-1.963h0.132v3.674
	h1.209v-3.674h0.133c0.827,0,1.406,0.47,1.771,1.879c0.166,0.738,0.331,1.409,0.547,1.795h1.241
	c-0.231-0.504-0.464-1.393-0.646-2.181c-0.248-1.106-0.812-2.029-1.805-2.231l2.384-3.706h-1.407l-1.937,3.572h-0.281v-3.572h-1.209
	v3.572h-0.265l-1.953-3.572H121.506z M115.464,70.826v8.118h1.308c0.596-1.309,1.324-3.153,1.59-3.824
	c0.347-0.89,0.679-1.795,0.96-2.818h0.049c-0.083,1.258-0.132,2.215-0.132,3.976v2.667h1.175v-8.118h-1.341l-1.341,3.505
	c-0.364,0.939-0.827,2.097-1.191,3.17h-0.033c0.099-1.273,0.115-2.482,0.115-3.891v-2.784H115.464z M108.76,70.826v8.118h1.274
	v-3.573h2.367v3.573h1.274v-8.118h-1.274v3.438h-2.367v-3.438H108.76z M102.354,67.639v11.306h1.241v-5.217h0.198
	c1.325,0,1.688,1.023,1.971,2.398c0.198,0.956,0.38,2.08,0.646,2.818h1.291c-0.348-0.973-0.514-2.08-0.745-3.153
	c-0.281-1.376-0.729-2.566-2.103-2.868l2.732-5.284h-1.392l-2.367,5.133h-0.231v-5.133H102.354z"/>
<path fill="#201600" d="M178.654,74.918c0,1.124-0.198,3.12-1.324,3.12c-1.258,0-1.424-2.6-1.424-3.539
	c0-0.47,0.05-1.157,0.265-1.728c0.182-0.503,0.547-0.906,1.126-0.906C178.439,71.865,178.654,73.761,178.654,74.918 M179.416,67.203
	c-0.397,0.168-1.209,0.285-1.755,0.436c-1.026,0.269-1.755,0.855-2.234,1.862c-0.563,1.124-0.762,2.734-0.762,4.646
	c0,2.097,0.463,4.948,2.665,4.948c1.589,0,2.599-1.425,2.599-4.276c0-2.869-1.026-3.992-2.334-3.992c-0.844,0-1.557,0.62-1.82,1.341
	h-0.033c0.065-0.703,0.198-1.459,0.496-2.112c0.314-0.688,0.778-1.141,1.655-1.343c0.547-0.15,1.126-0.251,1.457-0.385
	L179.416,67.203z M168.523,70.826l2.02,7.48c0.033,0.101,0.05,0.201,0.05,0.302c0,0.118-0.033,0.219-0.1,0.402
	c-0.132,0.403-0.381,0.939-0.712,1.376c-0.364,0.453-0.761,0.805-1.143,1.023l0.48,1.09c0.282-0.134,0.877-0.503,1.44-1.224
	c0.927-1.242,1.49-3.204,1.986-5.234l1.308-5.216h-1.258l-0.96,4.679c-0.116,0.588-0.248,1.191-0.332,1.661h-0.032
	c-0.116-0.521-0.199-1.04-0.331-1.678l-1.076-4.662H168.523z M163.326,70.826v3.724c0,1.492-0.067,2.633-0.547,3.12
	c-0.149,0.167-0.348,0.318-0.662,0.368l0.215,1.023c0.298,0,0.596-0.067,0.861-0.185c1.175-0.587,1.341-2.113,1.341-4.411v-2.583
	h1.754v7.062h1.275v-8.118H163.326z M156.323,67.639v11.306h1.241v-5.217h0.199c1.324,0,1.688,1.023,1.97,2.398
	c0.198,0.956,0.381,2.08,0.646,2.818h1.292c-0.348-0.973-0.514-2.08-0.746-3.153c-0.28-1.376-0.728-2.566-2.102-2.868l2.731-5.284
	h-1.391l-2.367,5.133h-0.232v-5.133H156.323z"/>
<path fill="#201600" d="M46.856,22.183c3.325-2.834,5.659-4.254,7.003-4.254c0.861,0,1.288,0.405,1.288,1.221
	c0,0.716-0.966,2.018-2.898,3.893c-1.932,1.881-2.898,3.014-2.898,3.407c0,0.386,0.211,0.598,0.632,0.629s0.632,0.137,0.632,0.318
	c0,0.243-0.44,0.361-1.313,0.361c-1.009,0-1.511-0.448-1.511-1.351c0-0.754,0.483-1.713,1.455-2.865
	c0.501-0.598,1.399-1.52,2.7-2.759c0.972-0.928,1.455-1.489,1.455-1.682c0-0.156-0.111-0.236-0.329-0.236
	c-0.687,0-2.191,0.928-4.501,2.777c-1.925,1.539-3.35,2.796-4.285,3.787c-1.189,1.252-1.907,1.881-2.161,1.881
	c-0.192,0-0.365-0.093-0.526-0.28c-0.155-0.193-0.236-0.386-0.236-0.598c0-0.28,0.836-1.408,2.501-3.388l2.991-3.562l-4.644,3.799
	l-3.437,2.653c-1.74,1.19-3.077,1.788-4.012,1.788c-0.155,0-0.235-0.075-0.235-0.224c0-0.225,0.167-0.374,0.508-0.449
	c0.458-0.087,0.997-0.268,1.616-0.548c0.885-0.386,2.687-1.688,5.411-3.899c2.446-1.993,4.205-3.519,5.282-4.578
	c0.18-0.181,0.464-0.398,0.854-0.654c0.192-0.075,0.396-0.112,0.619-0.112c0.205,0,0.409,0.069,0.625,0.212
	c0.21,0.137,0.315,0.305,0.315,0.498C49.76,18.184,48.794,19.591,46.856,22.183 M64.862,15.799l-6.551,0.262
	c-0.365,0-0.544-0.1-0.544-0.299c0-0.162,0.297-0.286,0.892-0.374c0.836-0.131,2.012-0.25,3.529-0.349
	c1.684-0.093,2.867-0.187,3.547-0.268l2.595-3.114c1.393-1.65,2.235-2.472,2.526-2.472c0.366,0,0.545,0.23,0.545,0.691
	c0,0.498-1.102,2.13-3.306,4.895c1.263-0.087,2.315-0.131,3.146-0.131c0.551,0,0.83,0.112,0.83,0.331
	c0,0.243-0.669,0.404-2.006,0.492l-2.749,0.093l-4.031,5.082c-2.539,3.338-3.808,5.332-3.808,5.973c0,0.305,0.198,0.461,0.595,0.467
	s0.594,0.106,0.594,0.312c0,0.243-0.266,0.367-0.799,0.367c-1.077,0-1.616-0.436-1.616-1.314c0-0.691,0.353-1.682,1.053-2.977
	l1.579-2.659l-5.375,4.248c-2.242,1.775-3.963,2.666-5.176,2.666c-0.142,0-0.217-0.081-0.217-0.25c0-0.218,0.124-0.361,0.366-0.423
	c0.409-0.087,1.034-0.299,1.87-0.635c0.811-0.424,2.613-1.738,5.412-3.937c2.068-1.613,3.375-2.659,3.907-3.145
	C62.62,18.458,63.685,17.281,64.862,15.799z M76.911,13.93c-0.576,0-0.867-0.299-0.867-0.896c0-0.505,0.297-0.953,0.885-1.358
	c0.533-0.367,1.059-0.548,1.591-0.548c0.625,0,0.941,0.349,0.941,1.046c0,0.499-0.316,0.928-0.941,1.277
	C77.982,13.768,77.443,13.93,76.911,13.93z M68.911,26.592c0,0.33,0.353,0.492,1.065,0.492c0.155,0,0.235,0.1,0.235,0.305
	c0,0.243-0.403,0.367-1.201,0.367c-0.91,0-1.362-0.442-1.362-1.32c0-1.021,1.344-3.164,4.037-6.421l-4.954,4.079
	c-2.928,2.417-5.052,3.625-6.371,3.625c-0.143,0-0.217-0.081-0.217-0.25c0-0.23,0.124-0.373,0.365-0.423
	c0.762-0.143,1.455-0.392,2.081-0.747c0.786-0.436,2.458-1.675,5.009-3.706l5.548-4.683c0.242-0.087,0.57-0.131,0.978-0.131
	c0.416,0,0.62,0.237,0.62,0.71c0,0.511-0.972,1.887-2.917,4.135C69.883,24.867,68.911,26.187,68.911,26.592z M77.146,23.453
	c-1.833,1.432-2.96,2.292-3.387,2.572c-1.653,1.127-2.935,1.694-3.839,1.694c-0.143,0-0.217-0.075-0.217-0.23
	c0-0.243,0.136-0.392,0.415-0.442c1.164-0.218,2.464-0.884,3.919-2.005l7.083-5.468c1.839-1.42,3.455-2.13,4.842-2.13
	c1.146,0,1.722,0.436,1.722,1.308c0,0.393-0.118,0.803-0.347,1.233c0.402,0.143,0.606,0.386,0.606,0.729
	c0,0.093-1.74,2.217-5.226,6.371h1.38c0.161,0,0.242,0.1,0.242,0.305c0,0.293-0.477,0.417-1.424,0.367
	c0.105,0.386,0.161,0.704,0.161,0.947c0,1.314-1.041,3.27-3.121,5.854c-2.099,2.641-3.734,3.961-4.892,3.961
	c-0.675,0-1.015-0.411-1.015-1.239c0-1.42,1.281-3.662,3.845-6.72l4.823-5.835c-2.334,1.949-3.963,2.921-4.879,2.921
	c-1.09,0-1.634-0.523-1.634-1.576C76.205,25.384,76.521,24.512,77.146,23.453z M78.242,26.673c0.99,0,2.706-1.059,5.132-3.183
	c2.428-2.124,3.641-3.674,3.641-4.658c0-0.355-0.149-0.53-0.439-0.53c-1.065,0-2.787,1.078-5.17,3.232
	c-2.377,2.155-3.566,3.725-3.566,4.715C77.839,26.53,77.976,26.673,78.242,26.673z M82.211,27.719
	c-1.257,1.438-2.582,3.07-3.975,4.895c-1.975,2.61-2.959,4.229-2.959,4.864c0,0.193,0.093,0.293,0.272,0.293
	c0.558,0,1.845-1.159,3.864-3.476c2.025-2.311,3.034-4.191,3.034-5.624C82.446,28.354,82.365,28.037,82.211,27.719z M97.505,24.288
	c-2.111,2.062-3.659,3.095-4.65,3.095c-0.749,0-1.127-0.417-1.127-1.258c0-0.984,0.434-2.086,1.307-3.313l2.334-2.771l-5.176,4.322
	c-2.922,2.236-4.978,3.357-6.161,3.357c-0.143,0-0.217-0.081-0.217-0.243c0-0.211,0.173-0.354,0.526-0.43
	c0.446-0.087,0.972-0.268,1.573-0.548c0.706-0.324,2.179-1.383,4.439-3.164c1.04-0.816,2.57-2.093,4.582-3.824
	c0.341-0.355,0.886-0.835,1.635-1.438c0.304-0.193,0.576-0.293,0.83-0.293c0.699,0,1.053,0.23,1.053,0.691
	c0,0.473-0.849,1.65-2.545,3.531c-1.697,1.881-2.545,3.227-2.545,4.024c0,0.205,0.111,0.311,0.328,0.311
	c0.724,0,2.341-1.389,4.842-4.167c2.508-2.778,3.926-4.167,4.267-4.167c0.167,0,0.334,0.087,0.495,0.262
	c0.167,0.174,0.247,0.355,0.247,0.535c0,0.293-0.929,1.52-2.786,3.681s-2.786,3.544-2.786,4.147c0,0.28,0.204,0.424,0.613,0.436
	c0.408,0.013,0.612,0.119,0.612,0.324c0,0.243-0.303,0.367-0.916,0.367c-1.021,0-1.536-0.392-1.536-1.17
	C96.742,26.025,96.997,25.259,97.505,24.288z M105.689,24.767c-0.606,0.144-1.746,0.704-3.424,1.675
	c-1.474,0.854-2.594,1.277-3.362,1.277c-0.143,0-0.217-0.081-0.217-0.25c0-0.23,0.155-0.373,0.471-0.423
	c0.743-0.118,1.783-0.573,3.127-1.357c1.479-0.847,2.688-1.376,3.622-1.595c0.558-1.351,1.709-2.771,3.449-4.26
	c1.857-1.595,3.437-2.392,4.742-2.392c0.973,0,1.455,0.417,1.455,1.246c0,1.083-1.027,2.273-3.077,3.55
	c-1.498,0.953-3.04,1.701-4.618,2.236c-0.168,0.38-0.255,0.778-0.255,1.195c0,0.623,0.224,1.028,0.663,1.215
	c0.217,0.087,0.632,0.137,1.244,0.162c0.439,0.013,0.656,0.125,0.656,0.331c0,0.33-0.749,0.492-2.241,0.492
	c-1.579,0-2.365-0.685-2.365-2.062C105.56,25.49,105.603,25.147,105.689,24.767z M108.073,23.727
	c1.115-0.548,2.291-1.295,3.523-2.236c1.647-1.233,2.471-2.211,2.471-2.934c0-0.292-0.13-0.442-0.396-0.442
	c-0.793,0-1.863,0.735-3.22,2.205C109.244,21.653,108.451,22.787,108.073,23.727z"/>
<path fill="#201600" d="M35.311,16.929l8.587-10.496l1.591-1.953c0.682-0.875,1.134-1.55,1.353-2.016l0.05-0.076
	c0-0.132-0.062-0.201-0.188-0.201c-0.576,0-4.215,2.463-10.923,7.383l-9.513,7.094l-0.01,0l-0.2,0.156l-0.373,0.278h0.018
	l-1.627,1.272l-0.019,0.001L5.292,35.162l-2.405,2.167c-1.279,1.152-2.079,1.707-2.361,1.707C0.176,39.036,0,38.86,0,38.5
	c0-0.447,1.864-2.042,5.305-5.122l16.223-14.515l0.09-0.057c0,0,3.338-2.744,4.756-3.864c0.032-0.025,0.055-0.05,0.073-0.074
	c2.548-1.986,5.711-4.325,9.491-7.019c6.839-4.857,10.923-7.29,12.245-7.29c0.658,0,0.99,0.428,0.99,1.292
	c0,0.73-0.864,2.167-2.586,4.322c-7.125,8.858-7.245,8.927-13.285,16.651c-2.531,3.175-3.927,4.762-4.196,4.762
	c-0.238,0-0.458-0.176-0.658-0.529c-0.188-0.302-0.282-0.586-0.282-0.838c0-0.384,2.085-3.106,6.25-8.177h-0.024l0.904-1.115
	L35.311,16.929z"/>
<path fill-rule="evenodd" clip-rule="evenodd" fill="#201600" d="M5.923,14.985c0.043-1.698,0.627-4.403,3.704-5.525
	c4.646-1.694,12.079,0.438,16.342,7.215c4.263,6.777,1.585,9.892,2.568,10.493c0.984,0.601,2.077-2.405,2.077-2.405
	s0.601-9.346-8.362-15.139C13.289,3.831,6.184,7.711,4.489,11.538c-1.086,2.453-0.398,4.075,0.395,4.894
	c1.21,1.251,1.217,0.529,1.124-0.256C5.952,15.695,5.915,15.314,5.923,14.985"/>
</svg>
