<?xml version="1.0" encoding="utf-8"?>
<!-- Generator: Adobe Illustrator 16.0.0, SVG Export Plug-In . SVG Version: 6.00 Build 0)  -->
<!DOCTYPE svg PUBLIC "-//W3C//DTD SVG 1.1//EN" "http://www.w3.org/Graphics/SVG/1.1/DTD/svg11.dtd">
<svg version="1.1" id="Layer_1" xmlns="http://www.w3.org/2000/svg" xmlns:xlink="http://www.w3.org/1999/xlink" x="0px" y="0px"
	 width="30px" height="30px" viewBox="0 0 30 30" enable-background="new 0 0 30 30" xml:space="preserve">
<g id="УДАЛИТЬ">
	<g opacity="0.4">
		<g>
			<path fill="#FFFFFF" d="M21.889,9.136H8.227c-1.44,0-2.601,1.173-2.601,2.625l1.409,15.115c0,1.451,1.167,2.624,2.601,2.624
				h11.059c1.435,0,2.603-1.173,2.603-2.624l1.193-15.115C24.49,10.31,23.322,9.136,21.889,9.136L21.889,9.136z M11.589,24.906
				c0,0.724-0.583,1.311-1.3,1.311c-0.722,0-1.301-0.587-1.301-1.311v-11.83c0-0.725,0.579-1.314,1.301-1.314
				c0.717,0,1.3,0.59,1.3,1.314V24.906z M16.141,24.906c0,0.724-0.582,1.311-1.3,1.311c-0.721,0-1.3-0.587-1.3-1.311v-11.83
				c0-0.725,0.579-1.314,1.3-1.314c0.718,0,1.3,0.59,1.3,1.314V24.906z M20.695,24.906c0,0.724-0.584,1.311-1.301,1.311
				c-0.723,0-1.299-0.587-1.299-1.311v-11.83c0-0.725,0.576-1.314,1.299-1.314c0.717,0,1.301,0.59,1.301,1.314V24.906z M7.532,7.823
				l15.745-4.092c0.873-0.224,1.396-1.121,1.17-1.997c-0.225-0.878-1.107-1.405-1.977-1.182l-4.844,1.255
				c-0.445-0.672-1.275-1.025-2.096-0.812l-1.887,0.494c-0.822,0.213-1.379,0.925-1.453,1.732l-5.469,1.42
				C5.851,4.869,5.329,5.763,5.553,6.64C5.778,7.521,6.664,8.046,7.532,7.823L7.532,7.823z"/>
		</g>
	</g>
</g>
</svg>
