<?xml version="1.0" encoding="utf-8"?>
<!-- Generator: Adobe Illustrator 16.0.0, SVG Export Plug-In . SVG Version: 6.00 Build 0)  -->
<!DOCTYPE svg PUBLIC "-//W3C//DTD SVG 1.1//EN" "http://www.w3.org/Graphics/SVG/1.1/DTD/svg11.dtd">
<svg version="1.1" id="Layer_1" xmlns="http://www.w3.org/2000/svg" xmlns:xlink="http://www.w3.org/1999/xlink" x="0px" y="0px"
	 width="30px" height="30px" viewBox="0 0 30 30" enable-background="new 0 0 30 30" xml:space="preserve">
<g id="КАТАЛОГ">
	<g opacity="0.4">
		<rect x="3.019" y="6.088" fill="#FFFFFF" width="5.515" height="17.771"/>
		<rect x="9.761" y="7.93" fill="#FFFFFF" width="3.678" height="15.931"/>
		<rect x="15.173" y="11.913" fill="#FFFFFF" width="3.474" height="11.948"/>
		<path fill="#FFFFFF" d="M4.246,3.076H7.31c0.674,0,1.223,0.456,1.223,1.021V5.12H3.019V4.096C3.019,3.532,3.568,3.076,4.246,3.076
			L4.246,3.076z"/>
		<path fill="#FFFFFF" d="M10.984,5.12h1.227c0.677,0,1.228,0.457,1.228,1.02v1.021H9.761V6.139
			C9.761,5.577,10.309,5.12,10.984,5.12L10.984,5.12z"/>
		<path fill="#FFFFFF" d="M16.398,8.59h1.227c0.676,0,1.227,0.458,1.227,1.025v1.02h-3.679v-1.02
			C15.173,9.048,15.721,8.59,16.398,8.59L16.398,8.59z"/>
		<path fill="#FFFFFF" d="M26.627,23.586l-3.611,0.686l-2.961-15.66L23.67,7.93L26.627,23.586z M20.74,5.625l1.203-0.228
			c0.664-0.126,1.289,0.221,1.395,0.774l0.188,1.006L19.914,7.86c0,0-0.086-0.447-0.191-1.006
			C19.619,6.301,20.072,5.751,20.74,5.625L20.74,5.625z M26.779,24.391c0,0,0.084,0.449,0.188,1.002
			c0.105,0.556-0.35,1.107-1.014,1.234l-1.203,0.227c-0.668,0.125-1.289-0.221-1.395-0.776l-0.191-1.004L26.779,24.391z"/>
		<path fill="#FFFFFF" d="M18.852,24.885v1.02c0,0.566-0.551,1.021-1.227,1.021h-1.227c-0.678,0-1.227-0.455-1.227-1.021v-1.02
			H18.852z"/>
		<path fill="#FFFFFF" d="M13.438,24.885v1.02c0,0.566-0.551,1.021-1.228,1.021h-1.227c-0.676,0-1.224-0.455-1.224-1.021v-1.02
			H13.438z"/>
		<path fill="#FFFFFF" d="M8.533,24.885v1.02c0,0.566-0.549,1.021-1.223,1.021H4.246c-0.678,0-1.228-0.455-1.228-1.021v-1.02H8.533z
			"/>
	</g>
</g>
</svg>
