<?xml version="1.0" encoding="utf-8"?>
<!-- Generator: Adobe Illustrator 16.0.0, SVG Export Plug-In . SVG Version: 6.00 Build 0)  -->
<!DOCTYPE svg PUBLIC "-//W3C//DTD SVG 1.1//EN" "http://www.w3.org/Graphics/SVG/1.1/DTD/svg11.dtd">
<svg version="1.1" id="Layer_1" xmlns="http://www.w3.org/2000/svg" xmlns:xlink="http://www.w3.org/1999/xlink" x="0px" y="0px"
	 width="30px" height="30px" viewBox="0 0 30 30" enable-background="new 0 0 30 30" xml:space="preserve">
<g id="НАПОМИНАНИЕ">
	<g>
		<g>
			<g>
				<path fill="#0C111A" d="M26.634,1.829c-2.024-1.555-4.934-1.166-6.489,0.859l7.348,5.623C29.048,6.28,28.657,3.384,26.634,1.829
					L26.634,1.829z"/>
				<path fill="#0C111A" d="M3.367,1.829C1.342,3.384,0.953,6.28,2.51,8.312l7.348-5.623C8.301,0.663,5.4,0.274,3.367,1.829
					L3.367,1.829z"/>
			</g>
			<path fill="#0C111A" d="M15.123,3.44c-6.877,0-12.445,5.574-12.445,12.443c0,6.873,5.568,12.445,12.445,12.445
				c6.87,0,12.443-5.572,12.443-12.445C27.566,9.014,21.993,3.44,15.123,3.44L15.123,3.44z M15.129,17.508
				c-0.193,0-0.369-0.043-0.539-0.105l-6.289,3.712l5.318-4.658c-0.068-0.183-0.121-0.371-0.121-0.572
				c0-0.713,0.471-1.303,1.117-1.523l0.978-8.343l0.613,8.669c0.334,0.303,0.547,0.723,0.547,1.197
				C16.753,16.782,16.023,17.508,15.129,17.508L15.129,17.508z"/>
			<path fill="#0C111A" d="M22.434,27.107l1.135,2.019h2.891l-2.037-3.61C23.813,26.104,23.146,26.637,22.434,27.107L22.434,27.107z
				"/>
			<path fill="#0C111A" d="M3.543,29.125h2.891l1.203-2.133c-0.707-0.48-1.365-1.025-1.975-1.627L3.543,29.125z"/>
		</g>
	</g>
</g>
</svg>
