<?xml version="1.0" encoding="utf-8"?>
<!-- Generator: Adobe Illustrator 16.0.0, SVG Export Plug-In . SVG Version: 6.00 Build 0)  -->
<!DOCTYPE svg PUBLIC "-//W3C//DTD SVG 1.1//EN" "http://www.w3.org/Graphics/SVG/1.1/DTD/svg11.dtd">
<svg version="1.1" id="Layer_1" xmlns="http://www.w3.org/2000/svg" xmlns:xlink="http://www.w3.org/1999/xlink" x="0px" y="0px"
	 width="30px" height="30px" viewBox="0 0 30 30" enable-background="new 0 0 30 30" xml:space="preserve">
<g id="СТАВКА__x2B_">
	<g>
		<g>
			<g>
				<g>
					<g>
						<path fill="#5D5D5D" d="M14.997,3.877C8.858,3.877,3.873,8.854,3.873,15c0,6.148,4.985,11.124,11.124,11.124
							c6.146,0,11.131-4.976,11.131-11.124C26.128,8.854,21.145,3.877,14.997,3.877L14.997,3.877z M14.997,24.396
							c-5.191,0-9.398-4.203-9.398-9.396c0-5.191,4.207-9.398,9.398-9.398c5.198,0,9.403,4.207,9.403,9.398
							C24.4,20.193,20.195,24.396,14.997,24.396L14.997,24.396z M21.721,12.905v4.059h-4.658v4.761h-4.062v-4.761H8.282v-4.059
							h4.719V8.278h4.062v4.627H21.721z"/>
					</g>
				</g>
			</g>
		</g>
	</g>
</g>
</svg>
