<?xml version="1.0" encoding="utf-8"?>
<!-- Generator: Adobe Illustrator 16.0.0, SVG Export Plug-In . SVG Version: 6.00 Build 0)  -->
<!DOCTYPE svg PUBLIC "-//W3C//DTD SVG 1.1//EN" "http://www.w3.org/Graphics/SVG/1.1/DTD/svg11.dtd">
<svg version="1.1" id="Layer_1" xmlns="http://www.w3.org/2000/svg" xmlns:xlink="http://www.w3.org/1999/xlink" x="0px" y="0px"
	 width="30px" height="30px" viewBox="0 0 30 30" enable-background="new 0 0 30 30" xml:space="preserve">
<g id="СТАВКА_-_ХОВЕР">
	<g>
		<g>
			<polygon points="17.063,12.905 13.001,12.905 8.283,12.905 8.283,16.963 13.001,16.963 17.063,16.963 21.718,16.963 
				21.718,12.905 			"/>
			<path d="M14.996,3.877C8.857,3.877,3.873,8.854,3.873,15c0,6.148,4.984,11.124,11.123,11.124c6.146,0,11.132-4.976,11.132-11.124
				C26.128,8.854,21.143,3.877,14.996,3.877z M14.996,24.396c-5.191,0-9.397-4.203-9.397-9.396c0-5.191,4.206-9.398,9.397-9.398
				c5.199,0,9.402,4.207,9.402,9.398C24.398,20.193,20.195,24.396,14.996,24.396z"/>
		</g>
	</g>
</g>
</svg>
