<?xml version="1.0" encoding="utf-8"?>
<!-- Generator: Adobe Illustrator 16.0.0, SVG Export Plug-In . SVG Version: 6.00 Build 0)  -->
<!DOCTYPE svg PUBLIC "-//W3C//DTD SVG 1.1//EN" "http://www.w3.org/Graphics/SVG/1.1/DTD/svg11.dtd">
<svg version="1.1" id="Layer_1" xmlns="http://www.w3.org/2000/svg" xmlns:xlink="http://www.w3.org/1999/xlink" x="0px" y="0px"
	 width="30px" height="30px" viewBox="0 0 30 30" enable-background="new 0 0 30 30" xml:space="preserve">
<g id="ВХОД">
	<path opacity="0.4" fill="#FFFFFF" enable-background="new    " d="M14.36,12.317c-0.467,0.115-0.758,0.617-0.648,1.117
		c0.896,4.126,1.092,8.451,0.563,12.507c-0.065,0.511,0.267,0.98,0.741,1.05c0.041,0.008,0.082,0.01,0.121,0.01
		c0.427,0,0.8-0.336,0.86-0.801c0.556-4.281,0.351-8.841-0.595-13.188C15.296,12.51,14.827,12.204,14.36,12.317z M12.348,17.555
		c-0.478,0.047-0.829,0.5-0.785,1.012c0.211,2.441,0.156,4.849-0.165,7.158c-0.069,0.51,0.258,0.982,0.731,1.058
		c0.043,0.008,0.086,0.01,0.129,0.01c0.423,0,0.795-0.33,0.859-0.793c0.34-2.457,0.399-5.015,0.176-7.604
		C13.249,17.883,12.811,17.502,12.348,17.555z M13.709,9.295c-0.979,0.244-1.812,0.883-2.345,1.797
		c-0.532,0.916-0.7,1.996-0.473,3.043c0.11,0.508,0.21,1.018,0.296,1.525c0.086,0.506,0.549,0.84,1.011,0.748
		c0.473-0.094,0.784-0.578,0.698-1.084c-0.092-0.535-0.196-1.072-0.313-1.609c-0.122-0.564-0.031-1.145,0.256-1.638
		c0.287-0.493,0.735-0.838,1.263-0.969c1.09-0.272,2.177,0.46,2.429,1.624c0.934,4.292,1.178,8.594,0.727,12.786
		c-0.055,0.512,0.287,0.973,0.764,1.03c0.035,0.004,0.068,0.007,0.103,0.007c0.437,0,0.812-0.351,0.86-0.824
		c0.474-4.404,0.22-8.92-0.76-13.42C17.756,10.151,15.736,8.797,13.709,9.295z M10.696,9.958c0.298-0.404,0.233-0.99-0.144-1.309
		C10.175,8.33,9.631,8.401,9.334,8.803C9.182,9.008,9.039,9.226,8.908,9.452c-0.943,1.619-1.24,3.533-0.836,5.387
		c0.742,3.42,0.914,6.933,0.501,10.156c-0.065,0.51,0.267,0.979,0.741,1.049c0.041,0.006,0.081,0.011,0.121,0.011
		c0.427,0,0.799-0.339,0.859-0.806c0.441-3.447,0.258-7.192-0.531-10.83c-0.297-1.371-0.077-2.785,0.619-3.983
		C10.48,10.268,10.584,10.108,10.696,9.958z M21.148,18.479c-0.479,0.027-0.849,0.463-0.824,0.978
		c0.08,1.717,0.055,3.438-0.074,5.123c-0.039,0.514,0.318,0.961,0.797,1.004c0.023,0.002,0.047,0.002,0.07,0.002
		c0.447,0,0.828-0.367,0.865-0.854c0.133-1.766,0.16-3.569,0.076-5.366C22.035,18.85,21.617,18.467,21.148,18.479z M20.938,17.195
		c0.037,0,0.072-0.002,0.109-0.006c0.475-0.063,0.813-0.528,0.754-1.037c-0.176-1.518-0.432-3.046-0.758-4.542
		c-0.691-3.193-3.438-5.512-6.529-5.512c-0.489,0-0.978,0.06-1.455,0.177c-0.395,0.097-0.781,0.234-1.151,0.405
		c-0.44,0.204-0.642,0.752-0.452,1.224c0.191,0.472,0.703,0.689,1.143,0.484c0.273-0.126,0.563-0.229,0.853-0.301
		c0.348-0.085,0.705-0.129,1.063-0.129c2.293,0,4.326,1.712,4.838,4.073c0.313,1.435,0.557,2.899,0.725,4.351
		C20.131,16.852,20.506,17.195,20.938,17.195z M23.865,10.912c-0.395-1.827-1.27-3.504-2.525-4.855
		C21,5.693,20.451,5.695,20.111,6.058c-0.34,0.363-0.34,0.959-0.002,1.323c1.027,1.104,1.74,2.49,2.063,3.979
		c0.811,3.725,1.172,7.547,1.076,11.285c-0.012,0.515,0.365,1.021,0.846,1.021h0.023c0.469,0,0.855-0.465,0.869-0.971
		C25.084,18.797,24.707,14.792,23.865,10.912z M6.498,18.523c0.043,0,0.086-0.002,0.129-0.01c0.473-0.074,0.801-0.547,0.732-1.055
		c-0.105-0.768-0.244-1.555-0.415-2.34c-0.474-2.178-0.126-4.423,0.981-6.324c1.104-1.897,2.835-3.222,4.869-3.728
		c1.756-0.434,3.627-0.178,5.242,0.692c0.426,0.232,0.948,0.045,1.166-0.413c0.215-0.459,0.041-1.019-0.388-1.249
		c-1.973-1.065-4.26-1.372-6.413-0.843C9.915,3.874,7.8,5.492,6.45,7.81c-1.353,2.325-1.777,5.071-1.199,7.729
		c0.16,0.736,0.29,1.473,0.389,2.189C5.703,18.191,6.074,18.523,6.498,18.523z M6.758,19.945H6.729c-0.479,0-0.855,0.31-0.84,0.822
		c0.035,1.051,0.004,1.959-0.086,2.963c-0.049,0.513,0.302,0.965,0.778,1.017c0.028,0.002,0.058,0.002,0.087,0.002
		c0.44,0,0.818-0.293,0.862-0.772c0.099-1.086,0.132-2.138,0.097-3.271C7.609,20.202,7.224,19.945,6.758,19.945z"/>
</g>
</svg>
