<?xml version="1.0" encoding="utf-8"?>
<!-- Generator: Adobe Illustrator 16.0.0, SVG Export Plug-In . SVG Version: 6.00 Build 0)  -->
<!DOCTYPE svg PUBLIC "-//W3C//DTD SVG 1.1//EN" "http://www.w3.org/Graphics/SVG/1.1/DTD/svg11.dtd">
<svg version="1.1" id="Layer_1" xmlns="http://www.w3.org/2000/svg" xmlns:xlink="http://www.w3.org/1999/xlink" x="0px" y="0px"
	 width="30px" height="30px" viewBox="0 0 30 30" enable-background="new 0 0 30 30" xml:space="preserve">
<g id="ЛЮБИМЫЕ">
	<g>
		<g>
			<g>
				<path fill="#FFFFFF" d="M21.432,12.708c1.26,0,2.453,0.285,3.521,0.791c0.77-1.291,1.33-2.555,1.514-3.67
					c0.381-2.339,0.041-4.226-1.01-5.604c-1.055-1.389-2.738-2.193-5.145-2.445c-0.189-0.02-0.396-0.035-0.601-0.035
					c-2.075,0-4.437,1.01-5.805,2.91c-1.377-1.9-3.736-2.91-5.807-2.91c-0.211,0-0.414,0.016-0.607,0.035
					C5.095,2.04,3.411,2.837,2.35,4.225C1.301,5.603,0.961,7.49,1.342,9.829c0.934,5.682,11.453,14.799,11.896,15.187
					c0.203,0.178,0.457,0.266,0.707,0.266c0.125,0,0.24-0.027,0.357-0.061c-0.736-1.238-1.158-2.687-1.158-4.224
					C13.145,16.43,16.865,12.708,21.432,12.708L21.432,12.708z M24.967,10.708c0,0-0.408-6.101-5.832-6.911
					C19.135,3.796,25.643,2.841,24.967,10.708L24.967,10.708z M21.432,13.514c-4.068,0-7.375,3.296-7.375,7.371
					s3.306,7.373,7.375,7.373c4.074,0,7.379-3.299,7.379-7.373S25.506,13.514,21.432,13.514L21.432,13.514z M21.432,27.114
					c-3.44,0-6.229-2.787-6.229-6.229c0-3.441,2.788-6.229,6.229-6.229c3.447,0,6.234,2.787,6.234,6.229
					C27.666,24.327,24.879,27.114,21.432,27.114L21.432,27.114z"/>
			</g>
		</g>
	</g>
</g>
</svg>
