<?xml version="1.0" encoding="utf-8"?>
<!-- Generator: Adobe Illustrator 16.0.0, SVG Export Plug-In . SVG Version: 6.00 Build 0)  -->
<!DOCTYPE svg PUBLIC "-//W3C//DTD SVG 1.1//EN" "http://www.w3.org/Graphics/SVG/1.1/DTD/svg11.dtd">
<svg version="1.1" id="Layer_1" xmlns="http://www.w3.org/2000/svg" xmlns:xlink="http://www.w3.org/1999/xlink" x="0px" y="0px"
	 width="30px" height="30px" viewBox="0 0 30 30" enable-background="new 0 0 30 30" xml:space="preserve">
<g id="В_ЛЮБИМЫЕ_2">
	<g opacity="0.4">
		<g>
			<g>
				<g>
					<path fill="#FFFFFF" d="M21.432,12.708c1.26,0,2.453,0.285,3.523,0.791c0.77-1.293,1.328-2.557,1.512-3.672
						c0.381-2.339,0.041-4.225-1.01-5.603c-1.055-1.39-2.738-2.193-5.145-2.445c-0.189-0.021-0.396-0.035-0.601-0.035
						c-2.075,0-4.436,1.01-5.805,2.911C12.53,2.754,10.171,1.744,8.1,1.744c-0.211,0-0.414,0.014-0.607,0.035
						C5.096,2.037,3.412,2.834,2.352,4.224c-1.051,1.378-1.391,3.264-1.01,5.603c0.934,5.682,11.455,14.799,11.896,15.188
						c0.205,0.178,0.457,0.266,0.709,0.266c0.123,0,0.238-0.027,0.355-0.061c-0.734-1.24-1.158-2.687-1.158-4.226
						C13.145,16.428,16.865,12.708,21.432,12.708L21.432,12.708z M24.969,10.706c0,0-0.41-6.099-5.834-6.909
						C19.135,3.796,25.643,2.841,24.969,10.706L24.969,10.706z M21.432,13.512c-4.068,0-7.375,3.298-7.375,7.373
						s3.306,7.373,7.375,7.373c4.074,0,7.379-3.299,7.379-7.373S25.506,13.512,21.432,13.512L21.432,13.512z M21.432,27.111
						c-3.44,0-6.229-2.784-6.229-6.227c0-3.441,2.788-6.23,6.229-6.23c3.447,0,6.234,2.789,6.234,6.23S24.879,27.111,21.432,27.111
						L21.432,27.111z M25.889,19.495v2.69h-3.088v3.154h-2.691v-3.154h-3.127v-2.69h3.127V16.43h2.691v3.065H25.889z"/>
				</g>
			</g>
		</g>
	</g>
</g>
</svg>
