<?xml version="1.0" encoding="utf-8"?>
<!-- Generator: Adobe Illustrator 16.0.0, SVG Export Plug-In . SVG Version: 6.00 Build 0)  -->
<!DOCTYPE svg PUBLIC "-//W3C//DTD SVG 1.1//EN" "http://www.w3.org/Graphics/SVG/1.1/DTD/svg11.dtd">
<svg version="1.1" id="Layer_1" xmlns="http://www.w3.org/2000/svg" xmlns:xlink="http://www.w3.org/1999/xlink" x="0px" y="0px"
	 width="50px" height="50px" viewBox="0 0 50 50" enable-background="new 0 0 50 50" xml:space="preserve">
<g id="Layer_11">
	<g>
		<g>
			<g>
				<path fill="#D8A46A" d="M46.314,21.255c0.097-0.25,0.187-0.5,0.271-0.747c0.015-0.042,0.028-0.085,0.044-0.126
					c0.08-0.245,0.156-0.485,0.225-0.722c0.008-0.025,0.015-0.052,0.023-0.078c0.066-0.248,0.131-0.492,0.186-0.735
					c0.013-0.059,0.024-0.117,0.037-0.173c0.047-0.222,0.09-0.442,0.125-0.66c0.002-0.019,0.008-0.041,0.01-0.058
					c0.199-1.318,0.283-2.559,0.263-3.722c-0.043-2.211-0.483-4.143-1.317-5.774c-0.219-0.425-0.459-0.833-0.729-1.217
					c-1.859-2.639-4.813-4.176-9.029-4.666c-0.024-0.003-0.051-0.007-0.075-0.01c-0.08-0.011-0.168-0.017-0.25-0.024
					C35.829,2.519,35.559,2.5,35.279,2.5c0,0-0.002,0-0.004,0H35.27c-3.662,0-7.832,1.926-10.27,5.551
					C22.561,4.426,18.392,2.5,14.728,2.5h-0.005c-0.002,0-0.004,0-0.004,0c-0.276,0-0.55,0.018-0.814,0.042
					c-0.083,0.008-0.169,0.014-0.25,0.024c-0.027,0.003-0.05,0.007-0.076,0.01c-4.217,0.49-7.172,2.026-9.03,4.666
					C4.278,7.626,4.038,8.034,3.82,8.458c-0.835,1.632-1.276,3.563-1.317,5.774c-0.021,1.164,0.063,2.404,0.261,3.722
					c0.003,0.018,0.009,0.04,0.013,0.058c0.034,0.218,0.075,0.438,0.124,0.66c0.011,0.056,0.023,0.114,0.036,0.173
					c0.056,0.243,0.117,0.488,0.187,0.735c0.007,0.025,0.016,0.053,0.023,0.078c0.068,0.237,0.144,0.478,0.225,0.722
					c0.014,0.041,0.027,0.084,0.041,0.126c0.086,0.247,0.176,0.497,0.273,0.747c0.03,0.082,0.064,0.165,0.097,0.249
					c0.063,0.154,0.125,0.309,0.192,0.464c0.414,0.983,0.908,1.988,1.466,3.006c0.005-0.003,0.009-0.004,0.015-0.007
					c5.612,10.076,17.738,21.432,18.367,22.025c0.151,0.145,0.322,0.251,0.498,0.332c-0.011,0.02-0.018,0.041-0.029,0.061
					C24.5,47.45,24.704,47.5,24.925,47.5c0.025,0,0.05-0.006,0.076-0.008c0.025,0.002,0.05,0.008,0.075,0.008
					c0.219,0,0.424-0.05,0.633-0.116c-0.012-0.02-0.021-0.038-0.031-0.059c0.176-0.083,0.348-0.189,0.5-0.334
					c0.629-0.595,12.754-11.949,18.366-22.025c0.004,0.003,0.009,0.004,0.013,0.007c0.562-1.018,1.053-2.022,1.469-3.006
					c0.064-0.155,0.129-0.31,0.189-0.464C46.247,21.42,46.281,21.336,46.314,21.255z"/>
			</g>
		</g>
	</g>
</g>
</svg>
