<?xml version="1.0" encoding="UTF-8"?>
<!DOCTYPE svg PUBLIC "-//W3C//DTD SVG 1.1//EN" "http://www.w3.org/Graphics/SVG/1.1/DTD/svg11.dtd">
<!-- Creator: CorelDRAW X7 -->
<svg xmlns="http://www.w3.org/2000/svg" xml:space="preserve" width="0.630756in" height="0.651142in" version="1.1" style="shape-rendering:geometricPrecision; text-rendering:geometricPrecision; image-rendering:optimizeQuality; fill-rule:evenodd; clip-rule:evenodd"
viewBox="0 0 638 659"
 xmlns:xlink="http://www.w3.org/1999/xlink">
 <defs>
  <style type="text/css">
   <![CDATA[
    .fil0 {fill:#ADADAD}
   ]]>
  </style>
 </defs>
 <g id="Слой_x0020_1">
  <metadata id="CorelCorpID_0Corel-Layer"/>
  <path class="fil0" d="M386 197c-4,-12 -14,-35 -46,-35 -45,1 -91,-7 -58,-45 27,-31 69,-76 99,-105 37,-34 46,11 49,56 1,43 43,45 43,45l49 46c0,0 2,41 47,41 45,-1 91,7 58,45 -27,31 -70,76 -100,105 -36,34 -46,-10 -48,-55 -1,-33 -24,-42 -37,-44l-25 27 -13 -12c-42,46 -157,171 -246,275 -112,129 -117,130 -143,104 -28,-25 -27,-29 96,-149 98,-94 217,-215 261,-260l-13 -12 27 -27 0 0z"/>
 </g>
</svg>
