<?xml version="1.0" encoding="utf-8"?>
<!-- Generator: Adobe Illustrator 16.0.0, SVG Export Plug-In . SVG Version: 6.00 Build 0)  -->
<!DOCTYPE svg PUBLIC "-//W3C//DTD SVG 1.1//EN" "http://www.w3.org/Graphics/SVG/1.1/DTD/svg11.dtd">
<svg version="1.1" id="Layer_1" xmlns="http://www.w3.org/2000/svg" xmlns:xlink="http://www.w3.org/1999/xlink" x="0px" y="0px"
	 width="50px" height="50px" viewBox="0 0 50 50" enable-background="new 0 0 50 50" xml:space="preserve">
<g id="Layer_12">
	<g>
		<g>
			<g>
				<path fill="#B9B8B9" d="M25.639,21.41l-0.52-0.358c-0.77,1.67-2.262,4.188-4.141,6.894c-0.678,0.979-1.352,1.902-1.996,2.744
					c0.434,0.539-0.041,0.947-0.455,1.545l-4.756,6.859c-0.504,0.729-0.977,1.275-1.705,0.771l-1.23-0.854
					c-0.729-0.504-0.383-1.139,0.121-1.867l4.756-6.858c0.414-0.599,0.629-1.185,1.285-0.972c0.564-0.896,1.191-1.852,1.869-2.83
					c1.877-2.708,3.711-4.99,5.004-6.295l-0.52-0.36c-0.438-0.304-0.547-0.904-0.242-1.34c0.303-0.437,0.902-0.547,1.34-0.244
					l2.287,1.586c0.438,0.304,0.545,0.903,0.242,1.34S26.076,21.714,25.639,21.41L25.639,21.41z M20.655,17.339
					c0.73,0.506,1.686,0.432,2.338-0.111l5.599,3.883c-0.279,0.801-0.012,1.719,0.719,2.227l0.213,0.148
					c0.879,0.609,2.086,0.391,2.697-0.488l2.576-3.719c0.611-0.879,0.393-2.088-0.488-2.696l-0.213-0.146
					c-0.729-0.509-1.686-0.436-2.338,0.106l-5.6-3.881c0.279-0.801,0.014-1.721-0.718-2.226l-0.213-0.148
					c-0.879-0.612-2.086-0.394-2.697,0.489l-2.576,3.717c-0.611,0.879-0.391,2.086,0.488,2.697L20.655,17.339z M37.973,34.209H37.23
					c-0.351-0.623-1.015-1.043-1.777-1.043H29.58c-0.764,0-1.428,0.42-1.775,1.043h-0.424c-0.887,0-1.604,0.719-1.604,1.605v0.428
					c0,0.887,0.717,1.604,1.604,1.604h10.592c0.889,0,1.607-0.717,1.607-1.604v-0.428C39.58,34.928,38.861,34.209,37.973,34.209
					L37.973,34.209z"/>
			</g>
		</g>
	</g>
</g>
</svg>
