<?xml version="1.0" encoding="utf-8"?>
<!-- Generator: Adobe Illustrator 16.0.0, SVG Export Plug-In . SVG Version: 6.00 Build 0)  -->
<!DOCTYPE svg PUBLIC "-//W3C//DTD SVG 1.1//EN" "http://www.w3.org/Graphics/SVG/1.1/DTD/svg11.dtd">
<svg version="1.1" id="Layer_1" xmlns="http://www.w3.org/2000/svg" xmlns:xlink="http://www.w3.org/1999/xlink" x="0px" y="0px"
	 width="30px" height="30px" viewBox="0 0 30 30" enable-background="new 0 0 30 30" xml:space="preserve">
<g id="ПОИСК">
	<g>
		<path fill="#FFFFFF" d="M14.28,9.815H9.384c-0.711,0.799-1.141,1.799-1.232,2.881h4.236c0.358,0,0.649,0.301,0.649,0.666
			c0,0.365-0.291,0.668-0.649,0.668H8.204c0.082,0.463,0.225,0.912,0.426,1.334h3.758c0.358,0,0.649,0.301,0.649,0.665
			c0,0.365-0.291,0.666-0.649,0.666h-2.83c0.01,0.011,0.019,0.019,0.026,0.025c0.936,0.955,2.174,1.481,3.498,1.481
			c0.907,0,1.798-0.247,2.531-0.71v-6.324C15.613,10.407,15.024,9.815,14.28,9.815L14.28,9.815z"/>
		<path fill="#FFFFFF" d="M24.455,21.752l-4.373-4.455c0.689-1.227,1.055-2.621,1.055-4.072c0-2.197-0.836-4.264-2.361-5.814
			c-1.524-1.554-3.551-2.41-5.706-2.41c-2.157,0-4.184,0.856-5.706,2.41C5.839,8.961,5,11.03,5,13.225
			c0,2.195,0.839,4.259,2.363,5.813c1.522,1.554,3.549,2.409,5.706,2.409c1.609,0,3.149-0.479,4.462-1.368l4.283,4.364
			C22.178,24.814,22.656,25,23.134,25s0.955-0.186,1.318-0.557C25.184,23.7,25.184,22.497,24.455,21.752L24.455,21.752z
			 M17.498,17.736c-1.184,1.207-2.758,1.873-4.429,1.873c-1.675,0-3.246-0.666-4.43-1.873c-1.184-1.204-1.836-2.806-1.836-4.511
			s0.652-3.309,1.834-4.513c1.184-1.208,2.757-1.872,4.432-1.872c1.671,0,3.246,0.664,4.429,1.872
			C19.941,11.198,19.941,15.25,17.498,17.736L17.498,17.736z"/>
	</g>
</g>
</svg>
