<?xml version="1.0" encoding="utf-8"?>
<!-- Generator: Adobe Illustrator 16.0.0, SVG Export Plug-In . SVG Version: 6.00 Build 0)  -->
<!DOCTYPE svg PUBLIC "-//W3C//DTD SVG 1.1//EN" "http://www.w3.org/Graphics/SVG/1.1/DTD/svg11.dtd">
<svg version="1.1" id="Layer_54" xmlns="http://www.w3.org/2000/svg" xmlns:xlink="http://www.w3.org/1999/xlink" x="0px" y="0px"
	 width="30px" height="30px" viewBox="0 0 30 30" enable-background="new 0 0 30 30" xml:space="preserve">
<g>
	<path fill="#B3B3B3" d="M3.871,29.501c-1.858,0-3.37-1.513-3.37-3.372V3.871c0-1.858,1.512-3.371,3.37-3.371h22.258
		c1.858,0,3.371,1.512,3.371,3.371v22.258c0,1.859-1.513,3.372-3.371,3.372H3.871z"/>
	<path fill="#EFEFEF" d="M26.129,1C27.712,1,29,2.288,29,3.871v22.258c0,1.584-1.288,2.872-2.871,2.872H3.871
		c-1.583,0-2.87-1.288-2.87-2.872V3.871C1.001,2.288,2.289,1,3.871,1H26.129 M26.129,0H3.871c-2.137,0-3.87,1.733-3.87,3.871v22.258
		c0,2.138,1.733,3.872,3.87,3.872h22.258c2.138,0,3.871-1.734,3.871-3.872V3.871C30,1.733,28.267,0,26.129,0L26.129,0z"/>
</g>
</svg>
