<?xml version="1.0" encoding="utf-8"?>
<!-- Generator: Adobe Illustrator 16.0.0, SVG Export Plug-In . SVG Version: 6.00 Build 0)  -->
<!DOCTYPE svg PUBLIC "-//W3C//DTD SVG 1.1//EN" "http://www.w3.org/Graphics/SVG/1.1/DTD/svg11.dtd">
<svg version="1.1" id="Layer_1" xmlns="http://www.w3.org/2000/svg" xmlns:xlink="http://www.w3.org/1999/xlink" x="0px" y="0px"
	 width="30px" height="30px" viewBox="0 0 30 30" enable-background="new 0 0 30 30" xml:space="preserve">
<g id="ГРОМКОСТЬ_ХОВЕР">
	<g>
		<path fill="#0F1429" d="M13.563,8.263L8.489,12.05c0,0-0.474,0.051-1.02,0.184v5.499c0.544,0.119,1.02,0.174,1.02,0.174
			l4.965,3.683c0,0,0.91,0.765,0.91-0.024V8.278C14.364,7.657,13.563,8.263,13.563,8.263L13.563,8.263z"/>
		<path fill="#0F1429" d="M5.857,13.342v3.543c0,0.273,0.389,0.49,0.867,0.648v-5.064C6.246,12.668,5.857,12.95,5.857,13.342
			L5.857,13.342z"/>
		<path fill="#0F1429" d="M17.104,11.174c-0.246-0.248-0.642-0.248-0.89,0c-0.243,0.244-0.243,0.643,0,0.887
			c0.81,0.811,1.209,1.861,1.209,2.924c0,1.064-0.399,2.121-1.209,2.928c-0.243,0.245-0.243,0.646,0,0.892
			c0.125,0.123,0.283,0.182,0.447,0.182c0.157,0,0.317-0.059,0.44-0.182c1.056-1.054,1.58-2.439,1.58-3.819
			C18.684,13.604,18.157,12.225,17.104,11.174L17.104,11.174z"/>
		<g>
			<path fill="#0F1429" d="M18.809,9.192c-0.248-0.244-0.646-0.244-0.896,0c-0.242,0.248-0.242,0.646,0,0.893
				c1.358,1.359,2.039,3.129,2.041,4.908c-0.002,1.784-0.679,3.565-2.041,4.929c-0.242,0.244-0.242,0.643,0,0.889
				c0.127,0.119,0.287,0.183,0.446,0.183c0.164,0,0.326-0.063,0.447-0.183c1.605-1.606,2.402-3.713,2.402-5.816
				C21.21,12.893,20.404,10.793,18.809,9.192L18.809,9.192z"/>
			<path fill="#0F1429" d="M20.893,7.165c-0.244-0.246-0.64-0.246-0.886,0c-0.243,0.246-0.243,0.645,0,0.889
				c1.916,1.919,2.875,4.425,2.875,6.939c0,2.521-0.954,5.032-2.875,6.956c-0.248,0.246-0.243,0.646,0,0.891
				c0.123,0.123,0.281,0.182,0.445,0.182c0.159,0,0.319-0.059,0.438-0.182c2.168-2.168,3.252-5.011,3.252-7.847
				C24.145,12.159,23.055,9.325,20.893,7.165L20.893,7.165z"/>
		</g>
	</g>
</g>
</svg>
