<?xml version="1.0" encoding="utf-8"?>
<!-- Generator: Adobe Illustrator 16.0.0, SVG Export Plug-In . SVG Version: 6.00 Build 0)  -->
<!DOCTYPE svg PUBLIC "-//W3C//DTD SVG 1.1//EN" "http://www.w3.org/Graphics/SVG/1.1/DTD/svg11.dtd">
<svg version="1.1" id="Layer_1" xmlns="http://www.w3.org/2000/svg" xmlns:xlink="http://www.w3.org/1999/xlink" x="0px" y="0px"
	 width="30px" height="30px" viewBox="0 0 30 30" enable-background="new 0 0 30 30" xml:space="preserve">
<g id="ПОЛЬЗОВАТЕЛЬ">
	<g>
		<path fill="#FFFFFF" d="M15,5.001c-6.627,0-12,5.388-12,12.035c0,2.896,1.021,5.553,2.721,7.628
			c0.264-2.104,2.357-3.885,5.301-4.727c1.072,1,2.461,1.612,3.979,1.612c1.481,0,2.845-0.582,3.908-1.542
			c2.963,0.918,5.016,2.803,5.084,4.992C25.861,22.878,27,20.09,27,17.036C27,10.389,21.631,5.001,15,5.001L15,5.001z M15,20.122
			c-0.765,0-1.488-0.211-2.129-0.574c-1.544-0.883-2.607-2.688-2.607-4.77c0-2.945,2.124-5.344,4.736-5.344
			c2.611,0,4.738,2.398,4.738,5.344c0,2.115-1.096,3.941-2.678,4.809C16.436,19.927,15.738,20.122,15,20.122L15,20.122z"/>
	</g>
</g>
</svg>
