<?xml version="1.0" encoding="utf-8"?>
<!-- Generator: Adobe Illustrator 16.0.0, SVG Export Plug-In . SVG Version: 6.00 Build 0)  -->
<!DOCTYPE svg PUBLIC "-//W3C//DTD SVG 1.1//EN" "http://www.w3.org/Graphics/SVG/1.1/DTD/svg11.dtd">
<svg version="1.1" id="Layer_1" xmlns="http://www.w3.org/2000/svg" xmlns:xlink="http://www.w3.org/1999/xlink" x="0px" y="0px"
	 width="30px" height="30px" viewBox="0 0 30 30" enable-background="new 0 0 30 30" xml:space="preserve">
<g id="СМЕНА">
	<g>
		<path fill="#D8D8D8" d="M14.998,6.083V2.741l-4.455,4.457l4.455,4.455v-3.34c3.68,0,6.688,3.009,6.688,6.689
			c0,1.115-0.33,2.223-0.774,3.117l1.668,1.67c0.776-1.447,1.338-3.01,1.338-4.787C23.916,10.098,19.906,6.083,14.998,6.083
			L14.998,6.083z M14.998,21.688c-3.672,0-6.682-3.01-6.682-6.686c0-1.115,0.332-2.234,0.779-3.125l-1.67-1.672
			c-0.783,1.447-1.34,3.012-1.34,4.797c0,4.902,4.01,8.912,8.912,8.912v3.346l4.463-4.463l-4.463-4.455L14.998,21.688L14.998,21.688
			z"/>
	</g>
</g>
</svg>
